<svg id="Layer_1" data-name="Layer 1" xmlns="http://www.w3.org/2000/svg" viewBox="0 0 363.66 66.44"><defs><style>.cls-1,.cls-2{fill:#005689;}.cls-2{fill-rule:evenodd;}</style></defs><path class="cls-1" d="M558.29,361a33.09,33.09,0,0,0-23.47-9.75h0a33.29,33.29,0,0,0-33.22,33.21h0a33.29,33.29,0,0,0,33.22,33.22h0A33.29,33.29,0,0,0,568,384.5h0A33.1,33.1,0,0,0,558.29,361Zm-16.46,51.61H527.06v-1.53H528a2.49,2.49,0,0,0,2-.88,4.13,4.13,0,0,0,.83-2,8.33,8.33,0,0,0,.13-1h7a9.26,9.26,0,0,0,.13,1.17,4.3,4.3,0,0,0,1,1.88,2.34,2.34,0,0,0,1.88.82h.94Zm9.48-10.89q-4.89,3.92-14.22,3.9H514.75c-.41-.16-.71-1.74,0-2a8.92,8.92,0,0,0,3.93-.57c.72-.38.82-.86,1.11-1.46a13,13,0,0,0,.44-4.44V370.3c0-2.77-.14-3.84-.44-4.46-1-2.11-3.17-1.81-5-2.11-.61-.2-.41-1.31,0-1.71H531a11.83,11.83,0,0,0-.15-1.43,4.15,4.15,0,0,0-.92-1.88,2.37,2.37,0,0,0-1.89-.81h-.94v-1.54h14.77v1.54h-.94a2.46,2.46,0,0,0-2,.87,4.22,4.22,0,0,0-.85,2,9.57,9.57,0,0,0-.14,1.27c4.89.06,10.65.58,13.55,4.81,3,6.09-1.81,11.8-7.57,13.85a30.74,30.74,0,0,1,8,4.62C557,389.43,556.14,397.86,551.31,401.75Z" transform="translate(-501.6 -351.28)"/><path class="cls-1" d="M539.24,382.1c-1.79.27-5.2.78-7.89,1l-.3,0v0c-.69,0-1.32.06-1.85,0-.88,0-.28-1.8-.28-1.87.17-.05,1-.17,2.13-.31V366.46l1.15-.89h4.95l.68.58v13.94a6,6,0,0,0,1.06-.2c10.88-4.73,7.64-15.12.34-15.77H528a.92.92,0,0,0-.92.92v34.18a3.69,3.69,0,0,0,3.68,3.68h.29V385.58l.52-.48,6.08-.72.18.24V402.9h1.6a9.22,9.22,0,0,0,9.18-9.19C548.53,388.44,544.23,384.8,539.24,382.1Z" transform="translate(-501.6 -351.28)"/><path class="cls-2" d="M608.7,378.26l-3.17,8.56h6.35l-3.18-8.56Zm-4.24,11.44-1.69,4.56c-.34,1.4.51,1.71,1.54,1.86a.69.69,0,0,1,0,1.07l-7.87.05a.69.69,0,0,1,0-1.12,3.69,3.69,0,0,0,2.74-1.67c3.1-7.94,6.2-15.88,9.24-23.82a.92.92,0,0,1,.57,0c3,7.94,6.14,15.88,9.24,23.82a3.67,3.67,0,0,0,2.73,1.67.68.68,0,0,1,0,1.12h-7.87a.74.74,0,0,1,0-1.12c1-.15,1.89-.46,1.54-1.86l-1.69-4.56Z" transform="translate(-501.6 -351.28)"/><path class="cls-2" d="M852.71,378.26l-3.17,8.56h6.34l-3.17-8.56Zm-4.25,11.44-1.68,4.56c-.35,1.4.51,1.71,1.54,1.86a.69.69,0,0,1,0,1.07l-7.87.05a.69.69,0,0,1,0-1.12,3.69,3.69,0,0,0,2.74-1.67q4.65-11.91,9.24-23.82a.92.92,0,0,1,.57,0c3,7.94,6.14,15.88,9.23,23.82a3.72,3.72,0,0,0,2.74,1.67.69.69,0,0,1,0,1.12H857.1a.74.74,0,0,1,0-1.12c1-.15,1.89-.46,1.54-1.86L857,389.7Z" transform="translate(-501.6 -351.28)"/><path class="cls-2" d="M588.83,384.87a4.8,4.8,0,1,1,0,9.58,5.3,5.3,0,0,1-1.83-.33v-8.93a5.3,5.3,0,0,1,1.83-.32Zm-.37-11.26a4.28,4.28,0,1,1,0,8.56,4.5,4.5,0,0,1-1.6-.3v-8a4.73,4.73,0,0,1,1.6-.29Zm1.33-3h0Zm0,0h-.71a2.31,2.31,0,0,0-.37,0h0l-7,0c-.77,0-.68.86-.44,1.11a2.5,2.5,0,0,1,2.1,1.86c0,4.65,0,7.32,0,10.33s0,5.68,0,10.32a2.5,2.5,0,0,1-2.1,1.87c-.24.24-.33,1.08.44,1.11l7.31,0a7.38,7.38,0,0,0,.82,0,7.52,7.52,0,0,0,7.65-7.37A7.37,7.37,0,0,0,593,383.1a6.68,6.68,0,0,0,3.44-5.79A6.91,6.91,0,0,0,589.78,370.6Z" transform="translate(-501.6 -351.28)"/><path class="cls-2" d="M726.91,370.63h0l-7,0c-.77,0-.68.86-.43,1.11a2.48,2.48,0,0,1,2.09,1.86c0,4.65,0,7.32,0,10.33s0,5.68,0,10.32a2.47,2.47,0,0,1-2.09,1.87c-.25.24-.34,1.08.43,1.11l7.32,0c19.57,0,19.39-27.28-.34-26.52Zm-2.29,23V373.74c19.85-2,15.11,22.78,1.84,20.52A5.35,5.35,0,0,1,724.62,393.6Z" transform="translate(-501.6 -351.28)"/><path class="cls-2" d="M639,377.66v12.22L622.7,370.6H622l0,3c0,4.65,0,7.32,0,10.33s0,5.68,0,10.32c0,2-1.17,1.68-2.09,1.87-.25.24-.34,1.08.43,1.11l7.42,0c.4,0,.65-1.09-.41-1.07a2.44,2.44,0,0,1-2.26-2.56v-1.91h0V378.26l16.17,18.93h.85l0-3c0-4.64,0-7.32,0-10.32s0-4.8,0-9.44a2.16,2.16,0,0,1,2.09-2.47c.25-.25.34-1.08-.43-1.12l-6.91.05c-.4,0-.65,1.09.41,1.07s1.68,1,1.75,2.56v1.63h0Z" transform="translate(-501.6 -351.28)"/><path class="cls-2" d="M710.91,377.66v12.22L694.57,370.6h-.68l0,3c0,4.65,0,7.32,0,10.33s0,5.68,0,10.32c0,2-1.17,1.68-2.09,1.87-.25.24-.34,1.08.43,1.11l7.42,0c.39,0,.65-1.09-.41-1.07a2.44,2.44,0,0,1-2.26-2.56v-1.91h0V378.26l16.17,18.93h.85l0-3c0-4.64,0-7.32,0-10.32s0-4.8,0-9.44a2.16,2.16,0,0,1,2.09-2.47c.24-.25.34-1.08-.43-1.12l-6.91.05c-.4,0-.65,1.09.41,1.07s1.68,1,1.75,2.56v1.63h0Z" transform="translate(-501.6 -351.28)"/><path class="cls-2" d="M790,377.66v12.22L773.63,370.6H773l0,3c0,4.65,0,7.32,0,10.33s0,5.68,0,10.32c0,2-1.16,1.68-2.09,1.87-.25.24-.34,1.08.43,1.11l7.43,0c.39,0,.65-1.09-.42-1.07a2.44,2.44,0,0,1-2.26-2.56v-1.91h0V378.26l16.17,18.93h.86l0-3c0-4.64,0-7.32-.05-10.32s0-4.8.05-9.44a2.16,2.16,0,0,1,2.08-2.47.65.65,0,0,0-.43-1.12l-6.9.05c-.4,0-.66,1.09.41,1.07.91-.08,1.67,1,1.74,2.56v1.63h0Z" transform="translate(-501.6 -351.28)"/><path class="cls-2" d="M686.15,374c.2-1.4.87-2.18,2-2.33.76,0,.81-1,.41-1.07l-7.89,0c-1.11.07-.77,1.19-.43,1.11,1,.14,2.5,1,2.56,2.28,0,6.89,0,13.35,0,20.23-.14,1.42-1.64,1.68-2.56,1.87-.25.24-.34,1.08.43,1.11l8,0c.39,0,.52-1.28-.41-1.07a2.54,2.54,0,0,1-2.05-2.42v-2.05h0C686.19,385.71,686.18,380,686.15,374Z" transform="translate(-501.6 -351.28)"/><path class="cls-2" d="M837.76,374c.19-1.4.87-2.18,2-2.33.76,0,.81-1,.41-1.07l-7.89,0c-1.12.07-.77,1.19-.43,1.11,1,.14,2.5,1,2.56,2.28,0,6.89,0,13.35,0,20.23-.15,1.42-1.64,1.68-2.56,1.87-.25.24-.34,1.08.43,1.11l8,0c.4,0,.53-1.28-.4-1.07a2.53,2.53,0,0,1-2-2.42v-2.05h0C837.79,385.71,837.79,380,837.76,374Z" transform="translate(-501.6 -351.28)"/><path class="cls-2" d="M756.6,370.54a13.35,13.35,0,1,1-13.43,13.35,13.42,13.42,0,0,1,13.43-13.35Zm0,2.8c-5.32,0-9.66,4.74-9.66,10.55s4.34,10.56,9.66,10.56,9.67-4.74,9.67-10.56S761.93,373.34,756.6,373.34Z" transform="translate(-501.6 -351.28)"/><path class="cls-2" d="M653,374c.2-1.4.88-2.18,2-2.33.75,0,.81-1,.41-1.07l-7.89,0c-1.12.07-.77,1.19-.44,1.11,1,.14,2.51,1,2.57,2.28,0,6.89,0,13.35,0,20.23-.15,1.42-1.64,1.68-2.57,1.87-.24.24-.33,1.08.44,1.11l8,0c.39,0,.52-1.28-.42-1.07a2.54,2.54,0,0,1-2-2.42v-2.05h0c0-2.31,0-4.59,0-6.87l8.67,10.17c.43,1.23-1.11,1-1.93,1.17-.23.24-.3,1.08.38,1.11l8.5,0c.35,0,.46-1.28-.37-1.07a4.49,4.49,0,0,1-1.43-.4l-10.76-12c1.78-1.93,9-11.68,10.71-11.95.67,0,.71-1,.37-1.07l-7,0a.56.56,0,1,0,0,1.11c.56,0,1.11.77.14,2.14L653,382.6C653,379.78,653,376.94,653,374Z" transform="translate(-501.6 -351.28)"/><path class="cls-2" d="M828.73,370.82V377c-.12.34-.9.29-.94,0-.31-3.77-5.21-5.7-7.36-1.49-2.47,6,12.19,7.33,9,16.74-1.65,4.78-6,6.13-13,3.91v-6.33c.05-.46,1-.46,1,0-.26,5.23,7.63,6,8.64,1.28,1.52-7.11-10.94-5.66-9.42-15.23C817.53,370.41,823,369.65,828.73,370.82Z" transform="translate(-501.6 -351.28)"/><path class="cls-2" d="M803.28,374c0-.14,0-.28.07-.4l6.13,0c1.08,0,1.87,1.17,2,2.89,0,.27.82.32.94,0v-5c0-.68-.36-.89-1-.89h-13.6c-1.11.07-.76,1.19-.44,1.11,1,.14,2.51,1,2.57,2.28,0,6.89,0,13.35,0,20.23-.14,1.42-1.63,1.68-2.57,1.87-.24.24-.33,1.08.44,1.11l3.29,0v0h10.87c.71,0,1.08-.21,1.08-.89v-5c-.13-.31-1-.27-1,0-.1,1.73-.93,2.9-2.07,2.89l-6.55,0a3.86,3.86,0,0,1-.1-.49v-2.05h0c0-2.39,0-4.75,0-7.1l5.47,0c1,0,1.72.69,1.81,2.1,0,.23.76.26.87,0v-3.06h0v-.06h0v-.05h0v-.05h0v-.27h0V383h0V383h0v-.13h0v-.18h0v-.07h0v-1.9c-.11-.27-.83-.24-.87,0-.09,1.48-.82,1.27-1.81,1.27l-5.47,0C803.3,379.3,803.29,376.69,803.28,374Z" transform="translate(-501.6 -351.28)"/><path class="cls-1" d="M586.63,411.08a3.73,3.73,0,0,0,1.15-.55,2.52,2.52,0,0,0,.73-.77,1.87,1.87,0,0,0,.25-.94,2.37,2.37,0,0,0-.1-.67,1.89,1.89,0,0,0-.39-.68,2.64,2.64,0,0,0-.8-.62,5.07,5.07,0,0,0-1.33-.43,10.25,10.25,0,0,0-2-.17c-.39,0-.77,0-1.13,0l-1,.07-.85.11v10.16l1.06.08c.43,0,.94,0,1.51,0a12.72,12.72,0,0,0,2.68-.24,4.32,4.32,0,0,0,1.73-.73,4.63,4.63,0,0,0,.38-.32,3.26,3.26,0,0,0,.36-.44,2.58,2.58,0,0,0,.27-.58,2.81,2.81,0,0,0,.11-.74,2.2,2.2,0,0,0-.22-1,2.31,2.31,0,0,0-.56-.76,3.42,3.42,0,0,0-.84-.53,4.07,4.07,0,0,0-1-.31v0Zm-3.56-.45v-3.11a3.42,3.42,0,0,1,.48-.06c.2,0,.47,0,.79,0a5.26,5.26,0,0,1,.89.07,2.71,2.71,0,0,1,.79.25,1.38,1.38,0,0,1,.57.47,1.4,1.4,0,0,1-.1,1.62,2.05,2.05,0,0,1-.88.58,3.87,3.87,0,0,1-1.35.21Zm0,1.16h1.12a5.8,5.8,0,0,1,1.11.1,3.25,3.25,0,0,1,.94.32,1.84,1.84,0,0,1,.68.57,1.46,1.46,0,0,1,.25.87,1.53,1.53,0,0,1-.24.87,1.63,1.63,0,0,1-.63.59,3.51,3.51,0,0,1-.93.33,5.76,5.76,0,0,1-1.12.1h-.67a3.38,3.38,0,0,1-.51,0v-3.69Zm13.07-5.47h-2.4l-4,10.33h2l1.12-3h4l1.18,3h2.06l-4-10.33Zm-2.92,6.09,1-2.72q.11-.31.21-.66c.07-.23.14-.47.2-.7s.13-.45.2-.67h0c.09.33.19.66.3,1s.23.69.34,1l1,2.7Zm17.93-6.09h-1.8v3.8c0,.55,0,1.07,0,1.56s0,1,.06,1.42.07.94.13,1.4h-.06c-.28-.55-.59-1.11-1-1.69s-.73-1.15-1.14-1.72L604,406.32h-2.13v10.33h1.8v-5.53c0-.51,0-1-.05-1.46s0-.9-.08-1.33l.07,0c.3.59.63,1.18,1,1.77s.75,1.17,1.15,1.73l3.39,4.84h2V406.32Zm7.1,4.4,4.24-4.4h-2.38l-3.33,3.7c-.15.18-.31.36-.46.55s-.32.39-.47.59h-.05v-4.84h-1.94v10.33h1.94v-3.8l1.08-1.08,3.59,4.88h2.27l-4.49-5.93Zm17.27-4.08a5.37,5.37,0,0,0-.68-.23,8.77,8.77,0,0,0-.91-.17,7.87,7.87,0,0,0-1.13-.07,6.3,6.3,0,0,0-1.75.22,4,4,0,0,0-1.32.6,2.69,2.69,0,0,0-.85.9,2.36,2.36,0,0,0-.29,1.14,2.08,2.08,0,0,0,.41,1.25,3.6,3.6,0,0,0,1.12,1,8.85,8.85,0,0,0,1.69.73,6.72,6.72,0,0,1,1.26.53,2,2,0,0,1,.71.62,1.26,1.26,0,0,1,.23.78,1.28,1.28,0,0,1-.27.81,1.87,1.87,0,0,1-.82.56,4.17,4.17,0,0,1-1.31.19,7.31,7.31,0,0,1-1.05-.08,7.08,7.08,0,0,1-1-.22,4.49,4.49,0,0,1-.79-.31l-.44,1.32a4.09,4.09,0,0,0,.81.3,10.1,10.1,0,0,0,1.1.23,9.71,9.71,0,0,0,1.21.08,7.17,7.17,0,0,0,1.94-.23,4.37,4.37,0,0,0,1.41-.63,2.73,2.73,0,0,0,.87-1,2.48,2.48,0,0,0,.3-1.2,2.28,2.28,0,0,0-.34-1.25,3.15,3.15,0,0,0-1-1,9,9,0,0,0-1.72-.8,9.23,9.23,0,0,1-1.34-.54,2.26,2.26,0,0,1-.78-.58,1.21,1.21,0,0,1-.25-.75,1,1,0,0,1,.13-.49,1.15,1.15,0,0,1,.39-.44,2,2,0,0,1,.68-.32,3.5,3.5,0,0,1,1-.12,5.86,5.86,0,0,1,1,.07,6,6,0,0,1,.78.18,4.6,4.6,0,0,1,.55.21l.47-1.3Zm9.63,8.7h-5.08v-3.43h4.53v-1.29h-4.53v-3h4.8v-1.3h-6.76v10.33h7v-1.31Zm11.27-9h-1.81v3.8c0,.55,0,1.07,0,1.56s0,1,.06,1.42.08.94.13,1.4h0c-.28-.55-.6-1.11-1-1.69s-.73-1.15-1.14-1.72l-3.38-4.78h-2.13v10.33H649v-3.87c0-.6,0-1.16,0-1.66s0-1-.05-1.46,0-.9-.08-1.33l.07,0c.3.59.63,1.18,1,1.77s.76,1.17,1.15,1.73l3.4,4.84h2V406.32Zm10.39,0h-8.94v1.33h3.48v9h2v-9h3.49v-1.33Zm7,5.39a4.34,4.34,0,0,0,1.19-.56,2.72,2.72,0,0,0,.81-.88,2.31,2.31,0,0,0,.32-1.18,2.4,2.4,0,0,0-.27-1.14,2.37,2.37,0,0,0-.76-.88,4,4,0,0,0-1.51-.63,10.65,10.65,0,0,0-2.18-.19c-.39,0-.78,0-1.15,0l-1.07.07-.93.11v10.19h2v-4.37h1.19a2.88,2.88,0,0,1,1.13.18,1.66,1.66,0,0,1,.75.61,3.85,3.85,0,0,1,.47,1.11c.1.42.2.8.31,1.13a7.7,7.7,0,0,0,.28.85,3.71,3.71,0,0,0,.21.49h2a4.24,4.24,0,0,1-.27-.61c-.1-.26-.21-.58-.32-1s-.23-.79-.37-1.24a3.69,3.69,0,0,0-.65-1.35,2.26,2.26,0,0,0-1.16-.75v0Zm-3.6-.61v-3.55a4.16,4.16,0,0,1,.53-.06q.35,0,.84,0a5.31,5.31,0,0,1,1,.09,3,3,0,0,1,.82.31,1.64,1.64,0,0,1,.56.55,1.68,1.68,0,0,1,.2.84,1.49,1.49,0,0,1-.32,1,2,2,0,0,1-.91.65,3.91,3.91,0,0,1-1.4.23Zm13.54-4.78h-2.4l-4,10.33h2l1.12-3h4l1.17,3h2.06l-4-10.33Zm-2.92,6.09,1-2.72c.07-.21.15-.43.21-.66s.14-.47.2-.7.13-.45.2-.67h0c.1.33.2.66.3,1s.22.69.34,1l1,2.7Zm15.62,2.91h-5v-9h-2v10.33h7v-1.33Zm11.07-3.61a4.15,4.15,0,0,0,1.18-.56,2.68,2.68,0,0,0,.83-.88,2.31,2.31,0,0,0,.31-1.18,2.52,2.52,0,0,0-.26-1.14,2.4,2.4,0,0,0-.77-.88,4,4,0,0,0-1.52-.63,10.48,10.48,0,0,0-2.17-.19c-.39,0-.77,0-1.15,0l-1.07.07-.92.11v10.19h1.94v-4.37h1.18a2.9,2.9,0,0,1,1.14.18,1.66,1.66,0,0,1,.75.61,3.37,3.37,0,0,1,.47,1.11c.1.42.21.8.31,1.13s.19.62.27.85.17.38.22.49h2A3.27,3.27,0,0,1,710,416c-.1-.26-.21-.58-.32-1s-.24-.79-.37-1.24a3.55,3.55,0,0,0-.66-1.35,2.23,2.23,0,0,0-1.15-.75v0Zm-3.6-.61v-3.55a4.16,4.16,0,0,1,.53-.06q.34,0,.84,0a5.21,5.21,0,0,1,1,.09,2.81,2.81,0,0,1,.83.31,1.48,1.48,0,0,1,.56.55,1.68,1.68,0,0,1,.21.84,1.61,1.61,0,0,1-.32,1,2,2,0,0,1-.92.65,3.87,3.87,0,0,1-1.4.23Zm15.16,4.24H714v-3.43h4.52v-1.29H714v-3h4.8v-1.3H712v10.33h7v-1.31Zm2,1.31H723v-4a2.87,2.87,0,0,0,.52,0l.58,0a9.23,9.23,0,0,0,1.4-.11,6.63,6.63,0,0,0,1.31-.36,4,4,0,0,0,1.1-.63,2.91,2.91,0,0,0,.75-1,3,3,0,0,0,.28-1.31,2.6,2.6,0,0,0-1.17-2.23,4.13,4.13,0,0,0-1.47-.62,10,10,0,0,0-2.09-.2c-.67,0-1.26,0-1.78.06s-1,.09-1.36.14v10.2Zm1.93-9.08c.13,0,.31,0,.54-.07l.79,0a3.93,3.93,0,0,1,1.38.21,2,2,0,0,1,.93.62,1.69,1.69,0,0,1,.34,1.05,1.8,1.8,0,0,1-.35,1.12,2.12,2.12,0,0,1-1,.7,4.2,4.2,0,0,1-1.55.25l-.61,0a3.46,3.46,0,0,1-.49-.06v-3.78Zm15.87-1.25h-2v6.25a3.76,3.76,0,0,1-.32,1.68,2,2,0,0,1-.9.95,2.88,2.88,0,0,1-1.41.31,2.75,2.75,0,0,1-1.33-.3,2.13,2.13,0,0,1-.89-1,3.72,3.72,0,0,1-.33-1.68v-6.25h-2v6.15a5.46,5.46,0,0,0,.32,2,3.41,3.41,0,0,0,.9,1.35,3.59,3.59,0,0,0,1.4.76,5.85,5.85,0,0,0,1.82.24,6.6,6.6,0,0,0,1.89-.25,4.11,4.11,0,0,0,1.48-.78,3.64,3.64,0,0,0,1-1.35,5.31,5.31,0,0,0,.33-2v-6.12Zm7.6,4.76a3.9,3.9,0,0,0,1.16-.55,2.48,2.48,0,0,0,.72-.77,1.87,1.87,0,0,0,.25-.94,1.82,1.82,0,0,0-.1-.67,1.89,1.89,0,0,0-.39-.68,2.52,2.52,0,0,0-.8-.62,4.94,4.94,0,0,0-1.33-.43,10.17,10.17,0,0,0-2-.17c-.39,0-.76,0-1.14,0l-1,.07-.85.11v10.16l1.06.08c.44,0,.94,0,1.51,0a12.89,12.89,0,0,0,2.69-.24,4.45,4.45,0,0,0,1.73-.73,4.63,4.63,0,0,0,.37-.32,2.65,2.65,0,0,0,.36-.44,3.12,3.12,0,0,0,.28-.58,2.45,2.45,0,0,0,.1-.74,2.19,2.19,0,0,0-.21-1,2.37,2.37,0,0,0-.58-.76,3.3,3.3,0,0,0-.82-.53,4.14,4.14,0,0,0-1-.31v0Zm-3.57-.45v-3.11a3.83,3.83,0,0,1,.49-.06c.21,0,.47,0,.79,0a5.26,5.26,0,0,1,.89.07,2.62,2.62,0,0,1,.79.25,1.36,1.36,0,0,1,.47,2.09,2.08,2.08,0,0,1-.87.58,3.91,3.91,0,0,1-1.35.21Zm0,1.16h1.14a5.7,5.7,0,0,1,1.1.1,3.32,3.32,0,0,1,1,.32,1.88,1.88,0,0,1,.67.57,1.54,1.54,0,0,1,.26.87,1.71,1.71,0,0,1-.24.87,1.82,1.82,0,0,1-.64.59,3.51,3.51,0,0,1-.93.33,5.76,5.76,0,0,1-1.12.1h-.67a3.67,3.67,0,0,1-.52,0v-3.69Zm14,3.53h-4.4v-9h-2v10.33h6.37v-1.33Zm1.74,1.33h2V406.32h-2v10.33Zm10.21-5.93,4.25-4.4h-2.38l-3.33,3.7-.47.55-.47.59h0v-4.84H764.5v10.33h1.94v-3.8l1.09-1.08,3.58,4.88h2.28l-4.5-5.93Zm11.33,5.93h2V406.32h-2v10.33Zm13.91-10.33h-1.81v3.8c0,.55,0,1.07,0,1.56s0,1,.07,1.42.07.94.12,1.4h0c-.28-.55-.6-1.11-1-1.69s-.73-1.15-1.14-1.72L787,406.32h-2.13v10.33h1.81v-3.87c0-.6,0-1.16,0-1.66s0-1,0-1.46,0-.9-.08-1.33l.07,0c.3.59.63,1.18,1,1.77s.75,1.17,1.15,1.73l3.39,4.84h2V406.32Zm2.71,10.3c.36,0,.77.07,1.25.09s1,0,1.56,0a14,14,0,0,0,2.12-.15,9,9,0,0,0,1.79-.46,5.34,5.34,0,0,0,1.38-.75,4.84,4.84,0,0,0,1-1,4.69,4.69,0,0,0,.65-1.37,6.06,6.06,0,0,0,.22-1.71h0a5.91,5.91,0,0,0-.1-1.17,4.81,4.81,0,0,0-.39-1.14,4.25,4.25,0,0,0-.76-1.05,5.06,5.06,0,0,0-1.23-.86,7.36,7.36,0,0,0-1.77-.57,12.1,12.1,0,0,0-2.4-.21c-.61,0-1.2,0-1.76.06s-1.07.09-1.54.15v10.16Zm2-9c.17,0,.38-.06.63-.08s.56,0,.89,0a5.9,5.9,0,0,1,2.39.43,3.19,3.19,0,0,1,1.5,1.27,3.94,3.94,0,0,1,.52,2.1,4.52,4.52,0,0,1-.56,2.35,3.3,3.3,0,0,1-1.6,1.39,5.93,5.93,0,0,1-2.49.45h-.69l-.59,0V407.6Zm14.31-1.43a6.55,6.55,0,0,0-2.27.38,5.12,5.12,0,0,0-1.76,1.09,4.76,4.76,0,0,0-1.14,1.7,5.73,5.73,0,0,0-.41,2.21,5.61,5.61,0,0,0,.39,2.13,4.63,4.63,0,0,0,1.08,1.66,4.87,4.87,0,0,0,1.7,1.07,6.38,6.38,0,0,0,2.24.38,6.7,6.7,0,0,0,2.19-.34,4.84,4.84,0,0,0,1.77-1,4.72,4.72,0,0,0,1.18-1.7,6.27,6.27,0,0,0,.43-2.35,6,6,0,0,0-.24-1.68,5,5,0,0,0-.68-1.45,4.42,4.42,0,0,0-1.09-1.11,5,5,0,0,0-1.51-.72,6.52,6.52,0,0,0-1.88-.26Zm-.06,1.28a3.37,3.37,0,0,1,1.23.22,3,3,0,0,1,1,.61,3.64,3.64,0,0,1,.67.9,4.19,4.19,0,0,1,.4,1.09,5.06,5.06,0,0,1,.13,1.17,5.32,5.32,0,0,1-.14,1.27,4.11,4.11,0,0,1-.42,1.11,3.34,3.34,0,0,1-.68.89,3.08,3.08,0,0,1-1,.59,3.36,3.36,0,0,1-1.22.21,3.3,3.3,0,0,1-1.21-.21,3,3,0,0,1-1-.6,3.32,3.32,0,0,1-.69-.88,4.82,4.82,0,0,1-.42-1.1,5.34,5.34,0,0,1-.14-1.21,6.14,6.14,0,0,1,.13-1.21,4.83,4.83,0,0,1,.4-1.1,3.19,3.19,0,0,1,.68-.91,2.76,2.76,0,0,1,1-.61,3.4,3.4,0,0,1,1.28-.23Zm16.73-1.13H828v3.8c0,.55,0,1.07,0,1.56s0,1,.07,1.42.06.94.12,1.4h-.06c-.28-.55-.59-1.11-1-1.69s-.73-1.15-1.14-1.72l-3.38-4.78h-2.13v10.33h1.8v-3.87c0-.6,0-1.16,0-1.66s0-1,0-1.46,0-.9-.08-1.33l.07,0c.3.59.63,1.18,1,1.77s.75,1.17,1.15,1.73l3.39,4.84h2V406.32Zm9.76,9h-5.09v-3.43H839v-1.29h-4.53v-3h4.8v-1.3h-6.76v10.33h7v-1.31Zm8.52-8.7a4.62,4.62,0,0,0-.69-.23,8.29,8.29,0,0,0-.91-.17,7.78,7.78,0,0,0-1.13-.07,6.28,6.28,0,0,0-1.74.22,4,4,0,0,0-1.32.6,2.69,2.69,0,0,0-.85.9,2.48,2.48,0,0,0-.3,1.14,2.15,2.15,0,0,0,.41,1.25,3.77,3.77,0,0,0,1.13,1,8.85,8.85,0,0,0,1.69.73,6.72,6.72,0,0,1,1.26.53,2.1,2.1,0,0,1,.71.62,1.33,1.33,0,0,1,.23.78,1.23,1.23,0,0,1-.28.81,1.83,1.83,0,0,1-.81.56,4.17,4.17,0,0,1-1.31.19,7.07,7.07,0,0,1-1-.08,6.17,6.17,0,0,1-1-.22,4.73,4.73,0,0,1-.81-.31l-.43,1.32a4.09,4.09,0,0,0,.81.3,8.35,8.35,0,0,0,2.31.31,7.17,7.17,0,0,0,1.94-.23,4.47,4.47,0,0,0,1.41-.63,2.73,2.73,0,0,0,.87-1,2.48,2.48,0,0,0,.29-1.2,2.27,2.27,0,0,0-.33-1.25,3.25,3.25,0,0,0-1-1,9.3,9.3,0,0,0-1.72-.8,9.73,9.73,0,0,1-1.34-.54,2.26,2.26,0,0,1-.78-.58,1.14,1.14,0,0,1-.24-.75,1,1,0,0,1,.12-.49,1.21,1.21,0,0,1,.38-.44,2,2,0,0,1,.68-.32,3.63,3.63,0,0,1,1-.12,5.61,5.61,0,0,1,1.75.25,4.21,4.21,0,0,1,.56.21l.47-1.3Zm3.17,10h2V406.32h-2v10.33Zm10.08-10.33H858.9L855,416.65h2l1.11-3h4l1.17,3h2.06l-4-10.33Zm-2.93,6.09,1-2.72c.06-.21.14-.43.21-.66s.13-.47.2-.7.13-.45.19-.67h0l.31,1c.1.35.21.69.33,1l1,2.7Z" transform="translate(-501.6 -351.28)"/></svg>