<svg version="1.2" xmlns="http://www.w3.org/2000/svg" viewBox="0 0 67 67" width="67" height="67">
	<title>BI_Logo SVG-svg</title>
	<style>
		.s0 { fill: #005689 } 
	</style>
	<path id="Layer" fill-rule="evenodd" class="s0" d="m60.8 14.8q1.8 2.7 3.1 5.7 1.2 3 1.9 6.2 0.6 3.2 0.6 6.5c0 4.4-0.9 8.7-2.6 12.7-1.6 4-4.1 7.7-7.2 10.7-3 3.1-6.7 5.6-10.7 7.2-4 1.7-8.3 2.6-12.7 2.6-4.3 0-8.7-0.9-12.7-2.5-4-1.7-7.7-4.2-10.7-7.3-3.1-3-5.6-6.7-7.3-10.7-1.6-4-2.5-8.4-2.5-12.7 0-4.4 0.9-8.7 2.6-12.7 1.6-4 4.1-7.7 7.2-10.8 3-3.1 6.7-5.5 10.7-7.2 4-1.7 8.4-2.5 12.7-2.5q3.3 0 6.5 0.6 3.2 0.6 6.2 1.9 3 1.3 5.8 3.1 2.7 1.8 5 4.1 2.3 2.3 4.1 5.1zm-20.5 45h-0.9q-0.3 0-0.6 0-0.2-0.1-0.5-0.2-0.2-0.1-0.4-0.3-0.2-0.1-0.4-0.3-0.2-0.2-0.3-0.4-0.2-0.3-0.3-0.5-0.2-0.2-0.3-0.5 0-0.2-0.1-0.5 0-0.2-0.1-0.3 0-0.1 0-0.3 0-0.1 0-0.3 0-0.1 0-0.3h-7q0 0.1-0.1 0.3 0 0.1 0 0.2 0 0.1 0 0.3 0 0.1-0.1 0.2 0 0.3-0.1 0.6 0 0.2-0.2 0.5-0.1 0.2-0.2 0.5-0.1 0.2-0.3 0.4-0.2 0.2-0.4 0.4-0.2 0.2-0.5 0.3-0.3 0.1-0.5 0.2-0.3 0-0.6 0h-0.9v1.5h14.7zm9.4-9.3c4.9-3.9 5.7-12.3 0.6-16.4q-0.9-0.7-1.8-1.4-1-0.7-2-1.2-1-0.6-2-1.1-1.1-0.5-2.2-0.9c5.8-2.1 10.6-7.8 7.6-13.9-2.9-4.2-8.7-4.7-13.5-4.8q0-0.2 0-0.3 0-0.2 0-0.3 0-0.2 0-0.4 0.1-0.1 0.1-0.3 0-0.2 0.1-0.5 0.1-0.3 0.2-0.5 0.1-0.3 0.2-0.5 0.2-0.3 0.3-0.5 0.2-0.2 0.5-0.4 0.2-0.1 0.4-0.2 0.3-0.2 0.6-0.2 0.3-0.1 0.5 0h1v-1.6h-14.8v1.6h1q0.2-0.1 0.5 0 0.3 0 0.5 0.1 0.2 0.2 0.5 0.3 0.2 0.2 0.3 0.4 0.2 0.2 0.4 0.4 0.1 0.2 0.2 0.5 0.1 0.2 0.2 0.4 0.1 0.3 0.2 0.6 0 0.1 0 0.3 0 0.2 0.1 0.4 0 0.1 0 0.3 0 0.2 0 0.4h-16.2c-0.4 0.4-0.6 1.5 0 1.7 1.8 0.3 4 0 5 2.1 0.3 0.6 0.4 1.7 0.4 4.5v26.8q0.1 0.6 0.1 1.1 0 0.6-0.1 1.1 0 0.6-0.1 1.2-0.1 0.5-0.3 1.1c-0.3 0.5-0.4 1-1.1 1.4q-0.5 0.2-1 0.3-0.4 0.1-0.9 0.2-0.5 0.1-1 0.1-0.5 0-1 0c-0.7 0.2-0.4 1.8 0 2h22.3q9.3 0 14.2-3.9z"/>
	<path id="Layer" class="s0" d="m37.6 30.8c-1.7 0.3-5.2 0.8-7.9 1h-0.2c-0.7 0-1.4 0.1-1.9 0-0.9 0-0.3-1.8-0.3-1.8 0.2-0.1 1-0.2 2.2-0.4v-14.4l1.1-0.9h5l0.6 0.6v13.9q0.2 0 0.3 0 0.1 0 0.3-0.1 0.1 0 0.2 0 0.2-0.1 0.3-0.1c10.9-4.7 7.6-15.1 0.3-15.8h-11.2q-0.2 0-0.4 0.1-0.1 0.1-0.3 0.2-0.1 0.1-0.1 0.3-0.1 0.2-0.1 0.4v34.1q0 0.8 0.3 1.4 0.2 0.7 0.8 1.2 0.5 0.6 1.2 0.8 0.6 0.3 1.4 0.3h0.2v-17.3l0.6-0.5 6-0.7 0.2 0.2v18.3h1.6c1.2 0 2.4-0.2 3.5-0.7 1.2-0.5 2.2-1.1 3-2 0.9-0.8 1.5-1.8 2-3 0.5-1.1 0.7-2.3 0.7-3.5-0.1-5.2-4.4-8.9-9.4-11.6z"/>
	<path id="Layer" fill-rule="evenodd" class="s0" d="m102.9 38.4l-1.7 4.6c-0.4 1.4 0.5 1.7 1.5 1.8q0.1 0.1 0.2 0.3 0.1 0.1 0.1 0.3 0 0.1-0.1 0.3-0.1 0.1-0.2 0.2l-7.9 0.1q-0.1-0.1-0.2-0.3 0-0.1 0-0.3 0-0.2 0-0.3 0.1-0.2 0.2-0.3 0.5 0 0.8-0.1 0.4-0.2 0.8-0.4 0.4-0.2 0.7-0.5 0.3-0.3 0.5-0.6 4.6-11.9 9.2-23.8 0.1-0.1 0.2-0.1 0 0 0.1 0 0.1 0 0.1 0 0.1 0 0.2 0.1c3 7.9 6.1 15.8 9.2 23.8q0.3 0.3 0.6 0.6 0.2 0.3 0.6 0.5 0.4 0.2 0.8 0.4 0.3 0.1 0.8 0.1 0.1 0.1 0.2 0.3 0.1 0.1 0.1 0.3 0 0.2-0.1 0.3-0.1 0.2-0.2 0.3h-7.9q-0.1-0.1-0.2-0.3-0.1-0.1-0.1-0.3 0-0.2 0.1-0.3 0.1-0.2 0.2-0.3c1-0.1 1.9-0.4 1.5-1.8l-1.7-4.6zm4.3-11.4l-3.2 8.5h6.4z"/>
	<path id="Layer" fill-rule="evenodd" class="s0" d="m346.9 38.4l-1.7 4.6c-0.4 1.4 0.5 1.7 1.5 1.8q0.1 0.1 0.2 0.3 0.1 0.1 0.1 0.3 0 0.1-0.1 0.3-0.1 0.1-0.2 0.2l-7.8 0.1q-0.2-0.1-0.3-0.3 0-0.1 0-0.3 0-0.2 0-0.3 0.1-0.2 0.3-0.3 0.4 0 0.8-0.1 0.4-0.2 0.7-0.4 0.4-0.2 0.7-0.5 0.3-0.3 0.5-0.6 4.6-11.9 9.2-23.8 0.1-0.1 0.2-0.1 0 0 0.1 0 0.1 0 0.2 0 0 0 0.1 0.1c3 7.9 6.1 15.8 9.2 23.8q0.3 0.3 0.6 0.6 0.3 0.3 0.6 0.5 0.4 0.2 0.8 0.4 0.4 0.1 0.8 0.1 0.1 0.1 0.2 0.3 0.1 0.1 0.1 0.3 0 0.2-0.1 0.3-0.1 0.2-0.2 0.3h-7.9q-0.1-0.1-0.2-0.3-0.1-0.1-0.1-0.3 0-0.2 0.1-0.3 0.1-0.2 0.2-0.3c1-0.1 1.9-0.4 1.5-1.8l-1.6-4.6zm4.3-11.4l-3.2 8.5h6.3z"/>
	<path id="Layer" fill-rule="evenodd" class="s0" d="m88.2 19.3q1.3 0.1 2.5 0.6 1.2 0.5 2.1 1.5 1 0.9 1.5 2.1 0.5 1.2 0.5 2.5 0 0.9-0.2 1.8-0.2 0.8-0.7 1.6-0.5 0.8-1.1 1.4-0.6 0.6-1.4 1 1 0.4 1.8 1.1 0.9 0.7 1.5 1.6 0.6 0.9 0.9 1.9 0.3 1.1 0.3 2.2 0 1.5-0.6 2.8-0.6 1.4-1.7 2.4-1.1 1.1-2.5 1.6-1.4 0.6-2.9 0.5-0.1 0-0.2 0-0.1 0-0.2 0-0.1 0-0.2 0-0.1 0-0.2 0h-7.3c-0.8 0-0.7-0.8-0.4-1.1q0.3 0 0.7-0.2 0.3-0.1 0.6-0.4 0.3-0.2 0.5-0.6 0.2-0.3 0.3-0.6c0-4.7 0-7.4 0-10.4 0-3 0-5.6 0-10.3q-0.1-0.4-0.3-0.7-0.2-0.3-0.5-0.6-0.3-0.2-0.6-0.4-0.4-0.1-0.7-0.2c-0.3-0.2-0.4-1.1 0.4-1.1h7q0.1 0 0.1 0 0 0 0.1 0 0 0 0.1 0 0 0 0.1 0h0.7zm-1.3 3q-0.2 0-0.4 0-0.2 0-0.4 0.1-0.2 0-0.4 0.1-0.2 0-0.4 0.1v8q0.2 0.1 0.4 0.1 0.2 0.1 0.4 0.1 0.2 0.1 0.4 0.1 0.2 0 0.4 0c1.1 0 2.2-0.5 3-1.3 0.8-0.8 1.3-1.8 1.3-3 0-1.1-0.5-2.2-1.3-3-0.8-0.8-1.9-1.3-3-1.3zm-0.1 11.3q-0.3 0.1-0.5 0.1-0.2 0-0.4 0.1-0.3 0.1-0.5 0.1v9q0.2 0.1 0.5 0.1 0.2 0.1 0.4 0.1 0.2 0.1 0.5 0.1 0.2 0 0.4 0c1.4 0.1 2.7-0.4 3.6-1.3 1-0.9 1.5-2.2 1.5-3.5 0-1.3-0.5-2.6-1.5-3.5-0.9-0.9-2.2-1.4-3.6-1.3q-0.2 0-0.4 0z"/>
	<path id="Layer" fill-rule="evenodd" class="s0" d="m225.3 19.4c19.7-0.7 19.9 26.6 0.3 26.6h-7.3c-0.8-0.1-0.7-0.9-0.4-1.2q0.4 0 0.7-0.2 0.3-0.1 0.6-0.4 0.3-0.2 0.5-0.5 0.2-0.4 0.3-0.7c0-4.7 0-7.3 0-10.3 0-3.1 0-5.7 0-10.4q-0.1-0.3-0.3-0.7-0.2-0.3-0.5-0.5-0.3-0.3-0.6-0.4-0.3-0.2-0.7-0.2c-0.3-0.3-0.4-1.1 0.4-1.1h7zm-2.3 22.8q0.3 0.2 0.5 0.3 0.2 0.1 0.4 0.2 0.3 0 0.5 0.1 0.2 0.1 0.5 0.1c13.2 2.3 18-22.5-1.9-20.5z"/>
	<path id="Layer" fill-rule="evenodd" class="s0" d="m137.4 26.4v12.2l-16.3-19.3h-0.7v3c0 4.7 0 7.3 0 10.4 0 3 0 5.6 0 10.3 0 2-1.2 1.7-2.1 1.8-0.2 0.3-0.3 1.1 0.4 1.2h7.5c0.4 0 0.6-1.1-0.5-1.1q-0.4-0.1-0.9-0.3-0.4-0.2-0.7-0.5-0.3-0.4-0.5-0.8-0.1-0.5-0.1-1v-1.9-13.4l16.2 18.9h0.8v-3c0-4.6 0-7.3 0-10.3 0-3 0-4.8 0-9.4q-0.1-0.5 0.1-1 0.1-0.4 0.4-0.8 0.3-0.3 0.7-0.5 0.4-0.2 0.9-0.2c0.2-0.3 0.3-1.1-0.4-1.1h-6.9c-0.4 0-0.7 1.1 0.4 1.1 1 0 1.6 1 1.7 2.5v1.7z"/>
	<path id="Layer" fill-rule="evenodd" class="s0" d="m209.3 26.4v12.2l-16.3-19.3h-0.7v3c0 4.7 0 7.3 0 10.4 0 3 0 5.6 0 10.3 0 2-1.2 1.7-2.1 1.8-0.2 0.3-0.3 1.1 0.4 1.2h7.4c0.4 0 0.7-1.1-0.4-1.1q-0.4-0.1-0.9-0.3-0.4-0.2-0.7-0.5-0.3-0.4-0.5-0.8-0.1-0.5-0.1-1v-1.9-13.4l16.1 18.9h0.9v-3c0-4.6 0-7.3 0-10.3 0-3 0-4.8 0-9.4q-0.1-0.5 0.1-1 0.1-0.4 0.4-0.8 0.3-0.3 0.7-0.5 0.4-0.2 0.9-0.2c0.2-0.3 0.3-1.1-0.4-1.1h-6.9c-0.4 0-0.7 1.1 0.4 1.1 1 0 1.6 1 1.7 2.5v1.7z"/>
	<path id="Layer" fill-rule="evenodd" class="s0" d="m288.4 26.4v12.2l-16.4-19.3h-0.6v3c0 4.7 0 7.3 0 10.4 0 3 0 5.6 0 10.3 0 2-1.2 1.7-2.1 1.8-0.2 0.3-0.3 1.1 0.4 1.2h7.5c0.4 0 0.6-1.1-0.5-1.1q-0.4-0.1-0.9-0.3-0.4-0.2-0.7-0.5-0.3-0.4-0.5-0.8-0.1-0.5-0.1-1v-1.9-13.4l16.2 18.9h0.8v-3c0-4.6 0-7.3 0-10.3-0.1-3 0-4.8 0-9.4q0-0.5 0.1-1 0.1-0.4 0.4-0.8 0.3-0.3 0.7-0.5 0.4-0.2 0.9-0.2 0.1-0.2 0.2-0.3 0-0.2 0-0.4-0.1-0.2-0.3-0.3-0.1-0.1-0.3-0.1h-6.9c-0.4 0-0.7 1.1 0.4 1.1 0.9-0.1 1.6 1 1.7 2.5v1.7z"/>
	<path id="Layer" fill-rule="evenodd" class="s0" d="m184.5 22.7q0.4-2.1 2-2.3c0.8 0 0.9-1 0.5-1.1h-7.9c-1.1 0.1-0.8 1.2-0.5 1.1 1 0.2 2.5 1 2.6 2.3 0 6.9 0 13.4 0 20.2-0.1 1.5-1.6 1.7-2.6 1.9-0.2 0.3-0.3 1.1 0.5 1.1h8c0.4 0 0.5-1.3-0.4-1q-0.5-0.1-0.8-0.4-0.4-0.2-0.7-0.5-0.3-0.3-0.4-0.7-0.2-0.4-0.2-0.9v-2c0-6 0-11.7-0.1-17.7z"/>
	<path id="Layer" fill-rule="evenodd" class="s0" d="m336.2 22.7q0.3-2.1 2-2.3c0.7 0 0.8-1 0.4-1.1h-7.9c-1.1 0.1-0.8 1.2-0.4 1.1 1 0.2 2.5 1 2.5 2.3 0 6.9 0 13.4 0 20.2-0.1 1.5-1.6 1.7-2.5 1.9-0.3 0.3-0.4 1.1 0.4 1.1h8c0.4 0 0.5-1.3-0.4-1q-0.4-0.1-0.8-0.4-0.4-0.2-0.6-0.5-0.3-0.3-0.5-0.7-0.1-0.4-0.1-0.9v-2c-0.1-6-0.1-11.7-0.1-17.7z"/>
	<path id="Layer" fill-rule="evenodd" class="s0" d="m255 19.3c5.4 0 10.2 3.3 12.3 8.3 2 4.9 0.9 10.7-3 14.5-3.8 3.8-9.5 4.9-14.5 2.8-5-2-8.2-6.9-8.2-12.3 0-1.7 0.3-3.5 1-5.1 0.7-1.6 1.7-3.1 2.9-4.3 1.3-1.3 2.8-2.3 4.4-2.9 1.6-0.7 3.3-1 5.1-1zm0 2.8c-5.3 0-9.7 4.7-9.7 10.5 0 5.8 4.4 10.6 9.7 10.6 5.3 0 9.7-4.8 9.7-10.6 0-5.8-4.4-10.5-9.7-10.5z"/>
	<path id="Layer" fill-rule="evenodd" class="s0" d="m151.4 22.7q0.3-2.1 2-2.3c0.7 0 0.8-1 0.4-1.1h-7.9c-1.1 0.1-0.8 1.2-0.4 1.1 1 0.2 2.5 1 2.5 2.3 0 6.9 0 13.4 0 20.2-0.1 1.5-1.6 1.7-2.5 1.9-0.3 0.3-0.4 1.1 0.4 1.1h8c0.4 0 0.5-1.3-0.4-1q-0.4-0.1-0.8-0.4-0.3-0.2-0.6-0.5-0.3-0.3-0.4-0.7-0.2-0.4-0.2-0.9v-2q0-3.5 0-6.9l8.7 10.2c0.4 1.2-1.1 1-2 1.2-0.2 0.2-0.3 1 0.4 1.1h8.5c0.4 0 0.5-1.3-0.4-1.1q-0.1 0-0.3-0.1-0.2 0-0.4-0.1-0.2 0-0.3-0.1-0.2 0-0.4-0.1l-10.7-12c1.7-1.9 9-11.7 10.7-12 0.6 0 0.7-1 0.3-1h-7q-0.2-0.1-0.4 0.1-0.2 0.2-0.2 0.4 0 0.3 0.2 0.4 0.2 0.2 0.4 0.2c0.6 0 1.2 0.8 0.2 2.1l-7.4 8.6c0-2.8 0-5.6 0-8.6z"/>
	<path id="Layer" fill-rule="evenodd" class="s0" d="m327.1 19.5v6.2c-0.1 0.4-0.9 0.3-0.9 0-0.3-3.7-5.2-5.7-7.4-1.5-2.4 6 12.2 7.4 9 16.8-1.6 4.7-6 6.1-13 3.9v-6.3c0.1-0.5 1-0.5 1 0-0.2 5.2 7.7 6 8.7 1.2 1.5-7.1-11-5.6-9.5-15.2 0.9-5.5 6.4-6.2 12.1-5.1z"/>
	<path id="Layer" fill-rule="evenodd" class="s0" d="m301.7 22.7c0-0.1 0-0.3 0.1-0.4h6.1c1.1 0 1.9 1.2 2 2.9 0 0.3 0.8 0.3 0.9 0v-5c0-0.7-0.3-0.9-1-0.9h-13.6c-1.1 0.1-0.7 1.2-0.4 1.1 1 0.2 2.5 1 2.6 2.3 0 6.9 0 13.4 0 20.2-0.2 1.5-1.7 1.7-2.6 1.9-0.3 0.3-0.4 1.1 0.4 1.1h3.3 10.9c0.7 0 1.1-0.2 1.1-0.9v-5c-0.2-0.3-1-0.2-1 0-0.1 1.8-1 2.9-2.1 2.9h-6.6q0 0 0-0.1 0-0.1 0-0.1 0-0.1 0-0.1-0.1-0.1-0.1-0.2v-2q0-3.6 0-7.1h5.5c1 0 1.7 0.7 1.8 2.1 0 0.2 0.8 0.2 0.9 0v-3.1-0.1-0.3-0.2-0.1-0.2-0.1-1.9c-0.1-0.2-0.8-0.2-0.9 0-0.1 1.5-0.8 1.3-1.8 1.3h-5.5c0-2.7 0-5.3 0-8z"/>
	<path id="Layer" fill-rule="evenodd" class="s0" d="m85 59.8q0.1 0 0.2 0-0.1 0-0.2-0.1zm0.2 0q0 0 0.1 0 0.1 0.1 0.3 0.1 0.1 0 0.2 0.1 0.1 0 0.2 0.1 0.2 0 0.3 0.1 0.1 0.1 0.2 0.1 0.1 0.1 0.2 0.2 0.1 0 0.2 0.1 0.1 0.1 0.2 0.2 0 0.1 0.1 0.2 0.1 0.1 0.1 0.2 0.1 0.1 0.1 0.2 0.1 0.1 0.1 0.2 0.1 0.1 0.1 0.3 0 0.1 0.1 0.2 0 0.2 0 0.3 0 0.1 0 0.2 0 0.1-0.1 0.2 0 0 0 0.1 0 0.1 0 0.2-0.1 0.1-0.1 0.2 0 0-0.1 0.1 0 0.1 0 0.2-0.1 0-0.1 0.1-0.1 0.1-0.1 0.1 0 0.1-0.1 0.1 0 0.1-0.1 0.1 0 0.1-0.1 0.1 0 0.1-0.1 0.1 0 0.1-0.1 0.1 0 0-0.1 0.1 0 0-0.1 0.1-0.1 0.1-0.3 0.2-0.3 0.1-0.5 0.2-0.2 0.1-0.4 0.2-0.2 0-0.5 0.1-0.3 0.1-0.6 0.1-0.4 0.1-0.7 0.1-0.3 0-0.7 0-0.3 0-0.7 0-0.8 0-1.5 0l-1-0.1v-10.1l0.8-0.1 1-0.1q0.6 0 1.1 0 0.3 0 0.6 0 0.2 0 0.5 0 0.2 0.1 0.5 0.1 0.2 0 0.4 0.1 0.2 0 0.4 0.1 0.2 0 0.3 0 0.2 0.1 0.4 0.2 0.1 0 0.3 0.1 0.1 0.1 0.2 0.1 0.1 0.1 0.2 0.2 0.1 0.1 0.2 0.1 0.1 0.1 0.2 0.2 0 0.1 0.1 0.2 0.1 0.1 0.1 0.1 0.1 0.1 0.1 0.2 0 0.1 0.1 0.2 0 0.1 0 0.2 0 0.1 0 0.1 0.1 0.1 0.1 0.2 0 0.1 0 0.2 0 0.1 0 0.2-0.1 0.1-0.1 0.3 0 0.1-0.1 0.2 0 0.1-0.1 0.2 0 0.1-0.1 0.2-0.1 0.1-0.2 0.2-0.1 0.1-0.2 0.2-0.1 0.1-0.2 0.2-0.1 0.1-0.3 0.2-0.1 0-0.3 0.1-0.1 0.1-0.3 0.1 0 0.1-0.1 0.1zm-2.5-0.4q0.1 0 0.3 0 0.2 0 0.4 0 0.1-0.1 0.3-0.1 0.2 0 0.3-0.1 0.1 0 0.3-0.1 0.1 0 0.2-0.1 0.1-0.1 0.2-0.2 0.1-0.1 0.2-0.2 0.1-0.1 0.2-0.3 0.1-0.2 0.1-0.5 0-0.2 0-0.4-0.1-0.2-0.2-0.4-0.1-0.1-0.1-0.1-0.1-0.1-0.2-0.2 0 0-0.1-0.1-0.1 0-0.2-0.1-0.1 0-0.2 0-0.1-0.1-0.2-0.1-0.1 0-0.2-0.1-0.1 0-0.2 0-0.1 0-0.2 0-0.1-0.1-0.2-0.1-0.1 0-0.2 0-0.1 0-0.3 0-0.4 0-0.7 0-0.1 0-0.2 0 0 0-0.1 0 0 0-0.1 0.1-0.1 0-0.1 0v3.1zm-1.2 4.9q0.1 0 0.1 0 0.1 0 0.1 0 0.1 0 0.2 0 0 0 0.1 0h0.7q0.1 0 0.3 0 0.1 0 0.2-0.1 0.2 0 0.3 0 0.2 0 0.3 0 0.1-0.1 0.2-0.1 0.1 0 0.3-0.1 0.1 0 0.2-0.1 0.1 0 0.2-0.1 0.1 0 0.2-0.1 0.1 0 0.2-0.1 0.1-0.1 0.1-0.2 0.1-0.1 0.1-0.1 0.1-0.1 0.2-0.3 0-0.1 0-0.2 0.1-0.1 0.1-0.2 0-0.1 0-0.2 0-0.1 0-0.2 0-0.2-0.1-0.3 0-0.1 0-0.2-0.1-0.1-0.2-0.2 0-0.1-0.1-0.2-0.1 0-0.2-0.1-0.1-0.1-0.1-0.1-0.1-0.1-0.2-0.2-0.2 0-0.3-0.1-0.1 0-0.2-0.1-0.1 0-0.2 0-0.2-0.1-0.3-0.1-0.1 0-0.3 0-0.1 0-0.2-0.1-0.2 0-0.3 0-0.2 0-0.3 0h-1.1zm13-9.2l4 10.3h-2l-1.2-3h-4l-1.1 3h-2l4-10.3zm0.3 6l-1-2.7q-0.1-0.4-0.3-1-0.2-0.5-0.3-1-0.1 0.4-0.2 0.7-0.1 0.4-0.2 0.7-0.1 0.4-0.2 0.7l-1 2.7zm14.7 4.3h-2l-3.4-4.8q-0.6-0.9-1.2-1.8-0.5-0.9-1-1.7h-0.1c0.1 0.4 0.1 0.8 0.1 1.3q0.1 0.7 0.1 1.5v5.5h-1.8v-10.3h2.1l3.3 4.7c0.5 0.6 0.8 1.2 1.2 1.7 0.4 0.6 0.7 1.2 1 1.7 0-0.4 0-0.9-0.1-1.4 0-0.4 0-0.9 0-1.4 0-0.5 0-4.8 0-5.3h1.8zm11.6-0.1h-2.3l-3.6-4.8-1.1 1v3.8h-1.9v-10.3h1.9v4.8h0.1q0.2-0.3 0.4-0.5 0.3-0.3 0.5-0.6l3.3-3.7h2.4l-4.2 4.4zm12.8-10l-0.5 1.3q-0.1-0.1-0.1-0.1-0.1 0-0.2 0-0.1-0.1-0.1-0.1-0.1 0-0.2 0-0.1-0.1-0.2-0.1 0 0-0.1 0-0.1-0.1-0.2-0.1-0.1 0-0.2 0-0.2 0-0.3 0-0.1-0.1-0.2-0.1-0.2 0-0.3 0-0.1 0-0.2 0-0.2 0-0.3 0-0.1 0-0.2 0-0.2 0.1-0.3 0.1-0.1 0-0.2 0-0.1 0.1-0.2 0.1-0.1 0-0.2 0.1-0.1 0-0.2 0.1 0 0-0.1 0.1-0.1 0-0.1 0.1-0.1 0-0.1 0.1-0.1 0-0.1 0.1-0.1 0-0.1 0.1 0 0.1-0.1 0.1 0 0.1 0 0.1 0 0.1 0 0.2 0 0 0 0.1 0 0.1 0 0.2 0 0.1 0 0.2 0.1 0.1 0.1 0.2 0 0.1 0.1 0.1 0.1 0.1 0.2 0.2 0.1 0.1 0.2 0.2 0.1 0 0.2 0.1 0.1 0.1 0.2 0.1 0.2 0.1 0.3 0.2 0.2 0 0.3 0.1 0.2 0.1 0.4 0.1 0.2 0.1 0.3 0.2 0.3 0 0.5 0.1 0.2 0.1 0.4 0.2 0.2 0.1 0.4 0.2 0.2 0.1 0.5 0.3 0.1 0.1 0.2 0.2 0.2 0.1 0.3 0.2 0.1 0.1 0.2 0.3 0.2 0.1 0.3 0.3 0 0.1 0.1 0.3 0.1 0.1 0.1 0.3 0.1 0.1 0.1 0.3 0 0.1 0 0.3 0 0.2 0 0.3 0 0.2-0.1 0.3 0 0.2-0.1 0.3 0 0.2-0.1 0.3-0.1 0.2-0.2 0.3-0.1 0.1-0.2 0.3-0.1 0.1-0.2 0.2-0.1 0.1-0.3 0.2-0.1 0.1-0.3 0.2-0.2 0.1-0.4 0.2-0.1 0.1-0.3 0.1-0.2 0.1-0.4 0.1-0.2 0.1-0.5 0.1-0.2 0.1-0.5 0.1-0.2 0.1-0.4 0.1-0.3 0-0.5 0-0.2 0-0.3 0-0.2 0-0.3-0.1-0.2 0-0.3 0-0.2 0-0.3 0-0.2 0-0.3-0.1-0.2 0-0.3 0-0.1 0-0.3-0.1-0.1 0-0.2 0-0.1-0.1-0.2-0.1-0.2 0-0.3-0.1-0.1 0-0.2 0-0.1-0.1-0.1-0.1l0.4-1.4q0.1 0.1 0.2 0.1 0.1 0.1 0.2 0.1 0.1 0.1 0.2 0.1 0.1 0 0.2 0.1 0.1 0 0.2 0 0.2 0.1 0.3 0.1 0.1 0 0.2 0 0.2 0.1 0.3 0.1 0.1 0 0.2 0 0.2 0 0.3 0 0.1 0 0.3 0 0.1 0 0.2 0.1 0.2 0 0.4-0.1 0.1 0 0.3 0 0.2 0 0.3-0.1 0.2 0 0.3 0 0.2-0.1 0.3-0.1 0.1-0.1 0.2-0.2 0.1 0 0.2-0.1 0.1-0.1 0.2-0.2 0-0.1 0.1-0.2 0-0.1 0.1-0.2 0-0.1 0-0.2 0-0.1 0-0.2 0-0.1 0-0.2 0-0.1 0-0.2 0-0.1-0.1-0.2 0-0.1-0.1-0.2-0.1-0.1-0.1-0.2-0.1-0.1-0.2-0.1-0.1-0.1-0.2-0.2-0.1-0.1-0.2-0.1-0.2-0.1-0.3-0.2-0.2 0-0.3-0.1-0.2-0.1-0.3-0.1-0.2-0.1-0.4-0.1-0.2-0.1-0.4-0.2-0.2-0.1-0.4-0.2-0.2-0.1-0.5-0.2-0.2-0.1-0.4-0.2-0.1-0.1-0.3-0.2-0.1-0.1-0.3-0.2-0.1-0.1-0.2-0.3-0.2-0.1-0.3-0.3-0.1-0.1-0.2-0.3 0-0.1-0.1-0.3 0-0.1-0.1-0.3 0-0.2 0-0.3 0-0.2 0-0.3 0-0.2 0.1-0.3 0-0.2 0.1-0.3 0-0.1 0.1-0.3 0.1-0.1 0.2-0.2 0.1-0.1 0.2-0.3 0.1-0.1 0.2-0.2 0.1-0.1 0.3-0.2 0.1-0.1 0.3-0.2 0.1 0 0.3-0.1 0.1-0.1 0.3-0.2 0.2 0 0.4-0.1 0.2 0 0.4-0.1 0.2 0 0.4 0 0.3-0.1 0.5-0.1 0.2 0 0.4 0 0.2 0 0.3 0 0.1 0 0.3 0 0.1 0 0.3 0.1 0.1 0 0.3 0 0.1 0 0.2 0 0.1 0 0.2 0.1 0.1 0 0.2 0 0.1 0 0.3 0.1 0 0 0.1 0 0.1 0 0.2 0.1 0.1 0 0.2 0 0.1 0.1 0.1 0.1zm9.6 8.7v1.3h-7v-10.3h6.8v1.3h-4.8v3h4.5v1.3h-4.5v3.4zm11.3-9v10.3h-2l-3.4-4.8q-0.5-0.8-1.1-1.7-0.6-0.9-1-1.8h-0.1c0.1 0.4 0.1 0.9 0.1 1.3 0.1 0.5 0.1 1 0.1 1.5 0 0.5 0 4.9 0 5.5h-1.9v-10.3h2.1l3.4 4.8c0.4 0.5 0.8 1.1 1.2 1.7q0.6 0.9 1 1.7c-0.1-0.5-0.1-1-0.2-1.4 0-0.4 0-0.9 0-1.4 0-0.5 0-4.8 0-5.4h1.8zm10.3 0v1.4h-3.5v9h-2v-9h-3.4v-1.4zm6.9 5.4q0.1 0 0.1 0 0 0 0 0zm0-0.1q0.2 0.1 0.3 0.1 0.2 0.1 0.3 0.2 0.2 0.1 0.3 0.2 0.1 0.1 0.2 0.3 0.1 0.1 0.2 0.3 0.1 0.2 0.2 0.3 0.1 0.2 0.2 0.4 0 0.1 0.1 0.3c0.1 0.5 0.2 0.9 0.4 1.3q0.1 0.6 0.3 1 0 0 0 0.1 0.1 0.1 0.1 0.2 0 0.1 0.1 0.1 0 0.1 0 0.2h-2q0-0.1 0-0.1 0-0.1-0.1-0.2 0 0 0-0.1 0 0-0.1-0.1 0-0.1 0-0.2-0.1-0.1-0.1-0.2-0.1-0.1-0.1-0.2 0-0.2 0-0.3-0.2-0.5-0.4-1.1 0-0.1 0-0.3-0.1-0.1-0.2-0.3 0-0.1-0.1-0.2 0-0.2-0.1-0.3-0.1-0.1-0.2-0.2-0.1-0.1-0.2-0.2-0.1 0-0.2-0.1-0.1-0.1-0.2-0.1-0.1-0.1-0.3-0.1-0.1 0-0.2-0.1-0.2 0-0.3 0-0.2 0-0.3 0h-1.2v4.4h-2v-10.2l0.9-0.1 1.1-0.1q0.6 0 1.2 0 0.2 0 0.5 0 0.3 0 0.5 0 0.3 0.1 0.6 0.1 0.3 0 0.5 0.1 0.2 0 0.4 0.1 0.2 0.1 0.4 0.1 0.2 0.1 0.4 0.2 0.2 0.1 0.3 0.2 0.2 0.1 0.3 0.2 0.1 0.1 0.2 0.2 0.1 0.1 0.2 0.3 0 0.1 0.1 0.2 0.1 0.1 0.1 0.3 0.1 0.1 0.1 0.3 0 0.1 0.1 0.3 0 0.1 0 0.3 0 0.1 0 0.3-0.1 0.1-0.1 0.3-0.1 0.1-0.1 0.3-0.1 0.1-0.1 0.2-0.1 0.2-0.2 0.3-0.1 0.1-0.2 0.2-0.1 0.1-0.2 0.2-0.1 0.1-0.3 0.2-0.1 0.1-0.2 0.2-0.2 0.1-0.3 0.1-0.2 0.1-0.3 0.2-0.2 0-0.3 0zm-2.3-0.5q0.1 0 0.3 0 0.2 0 0.4 0 0.2-0.1 0.3-0.1 0.2 0 0.4-0.1 0.1-0.1 0.2-0.1 0.2-0.1 0.3-0.2 0.1-0.1 0.2-0.2 0.1 0 0.2-0.2 0.1-0.1 0.1-0.2 0.1-0.1 0.1-0.2 0.1-0.2 0.1-0.3 0-0.1 0-0.3 0-0.1 0-0.2 0-0.1 0-0.2-0.1-0.1-0.1-0.2 0-0.1-0.1-0.2-0.1-0.1-0.1-0.2-0.1 0-0.1-0.1-0.1-0.1-0.2-0.1-0.1-0.1-0.2-0.1-0.1-0.1-0.2-0.1-0.1-0.1-0.2-0.1-0.1-0.1-0.2-0.1-0.1 0-0.2-0.1-0.1 0-0.2 0-0.2 0-0.3 0-0.1 0-0.2 0-0.2-0.1-0.3 0-0.5 0-0.8 0-0.1 0-0.2 0 0 0-0.1 0-0.1 0-0.1 0-0.1 0-0.1 0v3.6zm12.1-4.9l4 10.4h-2l-1.2-3h-4l-1.1 3h-2l4-10.4zm0.4 6.1l-1-2.7q-0.2-0.5-0.4-1-0.1-0.5-0.3-1-0.1 0.3-0.2 0.6-0.1 0.4-0.2 0.7-0.1 0.4-0.2 0.7l-1 2.7zm12.4 4.3h-7v-10.3h2v9h5zm11-5q0.1 0 0.1 0 0 0-0.1 0zm0.1-0.1q0.1 0.1 0.2 0.1 0.2 0.1 0.3 0.2 0.2 0.1 0.3 0.2 0.1 0.1 0.3 0.2 0.1 0.2 0.2 0.3 0.1 0.2 0.2 0.4 0 0.1 0.1 0.3 0.1 0.2 0.1 0.4c0.1 0.4 0.3 0.8 0.4 1.2q0.1 0.7 0.3 1 0 0.1 0.1 0.2 0 0.1 0 0.2 0 0 0.1 0.1 0 0.1 0.1 0.2h-2c-0.1-0.1-0.2-0.3-0.3-0.5q-0.1-0.4-0.2-0.9-0.2-0.5-0.3-1.1-0.1-0.1-0.1-0.3-0.1-0.1-0.1-0.3-0.1-0.1-0.2-0.2 0-0.2-0.1-0.3-0.1-0.1-0.2-0.2 0-0.1-0.1-0.2-0.1 0-0.2-0.1-0.1-0.1-0.3-0.1-0.1-0.1-0.2-0.1-0.2 0-0.3-0.1-0.2 0-0.3 0-0.2 0-0.3 0h-1.2v4.4h-1.9v-10.2l0.9-0.1 1.1-0.1q0.5 0 1.1 0 0.3 0 0.6 0 0.2 0 0.5 0 0.3 0.1 0.6 0.1 0.2 0 0.5 0.1 0.2 0 0.4 0.1 0.2 0 0.4 0.1 0.2 0.1 0.4 0.2 0.1 0.1 0.3 0.2 0.1 0.1 0.2 0.2 0.2 0.1 0.2 0.2 0.1 0.1 0.2 0.2 0.1 0.2 0.2 0.3 0 0.1 0.1 0.3 0 0.1 0.1 0.3 0 0.1 0 0.2 0 0.2 0 0.3 0 0.2 0 0.3 0 0.2 0 0.4-0.1 0.1-0.1 0.2-0.1 0.2-0.2 0.3 0 0.2-0.1 0.3-0.1 0.1-0.2 0.2-0.1 0.1-0.3 0.2-0.1 0.1-0.2 0.2-0.1 0.1-0.3 0.2-0.1 0.1-0.3 0.1-0.1 0.1-0.3 0.2-0.1 0-0.2 0zm-2.3-0.5q0.1 0 0.3 0 0.2 0 0.4 0 0.1-0.1 0.3-0.1 0.2-0.1 0.4-0.1 0.1-0.1 0.2-0.1 0.1-0.1 0.3-0.2 0.1-0.1 0.2-0.2 0.1-0.1 0.2-0.2 0.1-0.1 0.1-0.2 0.1-0.1 0.1-0.2 0.1-0.2 0.1-0.3 0-0.1 0-0.3 0-0.1 0-0.2 0-0.1-0.1-0.2 0-0.1 0-0.2-0.1-0.1-0.1-0.2-0.1-0.1-0.1-0.2-0.1-0.1-0.2-0.1 0-0.1-0.1-0.2-0.1 0-0.2-0.1-0.1 0-0.2-0.1-0.1 0-0.2 0-0.1-0.1-0.2-0.1-0.1 0-0.2-0.1-0.1 0-0.3 0-0.1 0-0.2 0-0.1-0.1-0.3-0.1-0.1 0-0.2 0-0.5 0-0.8 0-0.1 0-0.2 0 0 0.1-0.1 0.1-0.1 0-0.1 0-0.1 0-0.2 0v3.6zm13.8 4.1v1.3h-7v-10.3h6.8v1.3h-4.8v3h4.5v1.3h-4.5v3.4zm2 1.3v-10.2c0.4-0.1 0.9-0.1 1.4-0.2q0.8 0 1.8 0 0.2 0 0.5 0 0.3 0 0.5 0 0.3 0.1 0.6 0.1 0.2 0 0.5 0.1 0.2 0 0.4 0.1 0.2 0 0.3 0.1 0.2 0.1 0.4 0.2 0.2 0.1 0.3 0.2 0.3 0.2 0.5 0.4 0.3 0.3 0.4 0.6 0.2 0.3 0.2 0.6 0.1 0.3 0.1 0.6 0 0.2 0 0.4 0 0.1-0.1 0.3 0 0.2 0 0.3-0.1 0.2-0.2 0.3 0 0.2-0.1 0.3-0.1 0.2-0.2 0.3-0.1 0.1-0.2 0.2-0.1 0.1-0.2 0.2-0.1 0.1-0.3 0.2-0.1 0.1-0.2 0.2-0.2 0.1-0.3 0.1-0.2 0.1-0.3 0.2-0.2 0-0.3 0.1-0.2 0-0.4 0.1-0.1 0-0.3 0.1-0.2 0-0.3 0-0.2 0.1-0.4 0.1-0.2 0-0.3 0-0.2 0-0.4 0-0.2 0-0.3 0h-0.6q-0.1 0-0.1 0-0.1 0.1-0.2 0.1 0 0-0.1-0.1-0.1 0-0.1 0v4h-1.9zm1.9-8.9v3.7q0 0.1 0.1 0.1 0.1 0 0.1 0 0.1 0 0.1 0 0.1 0 0.2 0h0.6q0.2 0 0.4 0 0.2 0 0.4-0.1 0.2 0 0.3 0 0.2-0.1 0.4-0.1 0.2-0.1 0.3-0.2 0.1 0 0.3-0.1 0.1-0.1 0.2-0.2 0.1-0.1 0.2-0.2 0.1-0.2 0.2-0.3 0-0.1 0.1-0.3 0-0.1 0.1-0.3 0-0.1 0-0.3 0-0.1 0-0.3-0.1-0.1-0.1-0.2-0.1-0.2-0.1-0.3-0.1-0.1-0.2-0.2-0.1-0.1-0.2-0.2-0.1-0.1-0.2-0.2-0.1-0.1-0.2-0.1-0.2-0.1-0.3-0.1-0.2-0.1-0.3-0.1-0.2-0.1-0.4-0.1-0.2 0-0.3 0-0.2-0.1-0.4 0h-0.8c-0.2 0-0.4 0-0.5 0zm15.9-1.3h-0.1zm0 0v6.1q0 0.2 0 0.5 0 0.2-0.1 0.5 0 0.2-0.1 0.5 0 0.2-0.1 0.5-0.1 0.2-0.2 0.3-0.1 0.2-0.3 0.4-0.1 0.2-0.2 0.3-0.2 0.2-0.3 0.3-0.2 0.2-0.4 0.3-0.1 0.1-0.3 0.2-0.2 0.1-0.4 0.2-0.2 0-0.4 0.1-0.2 0.1-0.5 0.1-0.2 0.1-0.4 0.1-0.3 0-0.5 0-0.3 0.1-0.5 0.1-0.2 0-0.5-0.1-0.2 0-0.4 0-0.2 0-0.5-0.1-0.2 0-0.4-0.1-0.2 0-0.4-0.1-0.2-0.1-0.4-0.2-0.1-0.1-0.3-0.2-0.2-0.1-0.3-0.2-0.2-0.2-0.3-0.3-0.1-0.2-0.3-0.4-0.1-0.1-0.2-0.3-0.1-0.2-0.1-0.4-0.1-0.2-0.2-0.5 0-0.2-0.1-0.5 0-0.2 0-0.5 0-0.2 0-0.5v-6.1h2v6.2q0 0.2 0 0.4 0 0.2 0 0.5 0.1 0.2 0.1 0.4 0.1 0.2 0.2 0.4 0.1 0.1 0.1 0.3 0.1 0.1 0.3 0.3 0.1 0.1 0.2 0.2 0.1 0.1 0.3 0.2 0.1 0.1 0.3 0.1 0.2 0.1 0.3 0.1 0.2 0.1 0.4 0.1 0.1 0 0.3 0 0.2 0 0.4 0 0.2 0 0.3-0.1 0.2 0 0.4-0.1 0.2 0 0.3-0.1 0.2-0.1 0.3-0.2 0.1-0.1 0.2-0.2 0.2-0.2 0.3-0.3 0.1-0.1 0.1-0.3 0.1-0.2 0.2-0.4 0-0.2 0.1-0.4 0-0.2 0-0.4 0-0.2 0-0.5v-6.2zm7.7 4.8q0-0.1 0.1-0.1-0.1 0-0.1 0zm0.1 0q0.1 0 0.2 0 0.1 0 0.2 0.1 0.1 0 0.3 0 0.1 0.1 0.2 0.1 0.1 0.1 0.2 0.1 0.1 0.1 0.2 0.2 0.1 0 0.2 0.1 0.1 0.1 0.2 0.2 0.1 0 0.2 0.1 0.1 0.1 0.1 0.2 0.1 0.1 0.2 0.2 0 0.1 0.1 0.2 0.1 0.1 0.1 0.3 0 0.1 0.1 0.2 0 0.1 0 0.3 0 0.1 0 0.2 0 0.1 0 0.2 0 0.1 0 0.2 0 0.1 0 0.2-0.1 0.1-0.1 0.2 0 0 0 0.1-0.1 0.1-0.1 0.2-0.1 0-0.1 0.1 0 0.1-0.1 0.2 0 0-0.1 0.1 0 0 0 0.1-0.1 0-0.1 0.1-0.1 0-0.1 0.1-0.1 0-0.1 0.1-0.1 0-0.1 0.1-0.1 0-0.1 0-0.1 0.1-0.1 0.1-0.2 0.1-0.4 0.3-0.2 0.1-0.4 0.2-0.2 0.1-0.5 0.1-0.2 0.1-0.4 0.1-0.4 0.1-0.7 0.2-0.3 0-0.7 0-0.3 0.1-0.6 0.1-0.4 0-0.7 0-0.9 0-1.5 0l-1.1-0.1v-10.2l0.9-0.1h1q0.5 0 1.1 0 0.3 0 0.5 0 0.3 0 0.5 0 0.3 0 0.5 0.1 0.3 0 0.5 0 0.2 0.1 0.3 0.1 0.2 0 0.4 0.1 0.1 0.1 0.3 0.1 0.2 0.1 0.3 0.2 0.1 0 0.3 0.1 0.1 0.1 0.2 0.1 0.1 0.1 0.2 0.2 0 0.1 0.1 0.2 0.1 0.1 0.2 0.1 0 0.1 0.1 0.2 0 0.1 0 0.2 0.1 0.1 0.1 0.2 0 0 0.1 0.1 0 0.1 0 0.2 0 0.1 0 0.2 0 0 0 0.1 0 0.2 0 0.3 0 0.1 0 0.2-0.1 0.1-0.1 0.2-0.1 0.2-0.1 0.3-0.1 0.1-0.2 0.2-0.1 0.1-0.1 0.2-0.1 0.1-0.2 0.2-0.1 0.1-0.2 0.1-0.2 0.1-0.3 0.2-0.2 0.1-0.3 0.2-0.2 0-0.3 0.1-0.1 0-0.2 0.1zm-2.5-0.4q0.2 0 0.4 0 0.1 0 0.3-0.1 0.2 0 0.4 0 0.1-0.1 0.3-0.1 0.1-0.1 0.2-0.1 0.1-0.1 0.3-0.2 0.1 0 0.2-0.1 0.1-0.1 0.2-0.2 0.1-0.3 0.2-0.6 0.1-0.3 0-0.6 0-0.3-0.2-0.5-0.2-0.3-0.5-0.4-0.1-0.1-0.2-0.1-0.1 0-0.2-0.1-0.1 0-0.2 0-0.1 0-0.2-0.1-0.1 0-0.2 0-0.1 0-0.3 0-0.1 0-0.2 0-0.1 0-0.2 0-0.5 0-0.8 0-0.1 0-0.1 0-0.1 0-0.1 0-0.1 0-0.2 0 0 0-0.1 0v3.1zm-1.1 1.2v3.7q0 0 0.1 0 0.1 0 0.1 0 0.1 0 0.2 0 0 0 0.1 0h0.7q0.1 0 0.2 0 0.2 0 0.3 0 0.2 0 0.3 0 0.1-0.1 0.3-0.1 0.1 0 0.2 0 0.1-0.1 0.2-0.1 0.2-0.1 0.3-0.1 0.1-0.1 0.2-0.1 0.1-0.1 0.2-0.1 0.1-0.1 0.2-0.2 0 0 0.1-0.1 0.1-0.1 0.1-0.2 0.1-0.1 0.1-0.2 0.1-0.1 0.1-0.2 0-0.1 0.1-0.2 0-0.2 0-0.3 0-0.1 0-0.2-0.1-0.1-0.1-0.2 0-0.1-0.1-0.2 0-0.1-0.1-0.2 0-0.1-0.1-0.2-0.1-0.1-0.2-0.2-0.1 0-0.2-0.1-0.1-0.1-0.1-0.1-0.2-0.1-0.3-0.1-0.1-0.1-0.2-0.1-0.2 0-0.3-0.1-0.1 0-0.2 0-0.2-0.1-0.3-0.1-0.2 0-0.3 0-0.1 0-0.3 0-0.1 0-0.2 0h-1.2zm13.9 3.4v1.4h-6.3v-10.4h2v9zm1.7-9h2v10.4h-2zm10.3 4.4l4.5 5.9h-2.3l-3.6-4.9-1.1 1.1v3.8h-1.9v-10.3h1.9v4.8l0.5-0.6 0.5-0.5 3.3-3.7h2.4l-4.3 4.4zm11.3-4.4h2v10.3h-2zm14.1 0v10.4h-2l-3.4-4.9q-0.6-0.8-1.2-1.7-0.5-0.9-1-1.8c0 0.5 0 0.9 0 1.4q0 0.7 0 1.4c0 0.5 0 5 0 5.6h-1.8v-10.4h2.2l3.3 4.8c0.4 0.6 0.7 1.2 1.1 1.7q0.6 0.9 1 1.7c0-0.4 0-1-0.1-1.4-0.1-0.4-0.1-0.9-0.1-1.4 0-0.5 0-4.8 0-5.4h1.9zm2.6 10.4q0 0 0 0zm0 0v-10.2q0.7 0 1.5-0.1 0.9-0.1 1.8-0.1 0.3 0 0.6 0 0.3 0 0.6 0.1 0.3 0 0.6 0 0.3 0.1 0.6 0.1 0.2 0.1 0.4 0.1 0.3 0.1 0.5 0.2 0.2 0 0.4 0.1 0.2 0.1 0.5 0.2 0.1 0.1 0.3 0.2 0.2 0.1 0.3 0.2 0.2 0.1 0.3 0.2 0.2 0.1 0.3 0.3 0.1 0.1 0.2 0.2 0.1 0.1 0.2 0.3 0.1 0.1 0.2 0.2 0.1 0.2 0.2 0.3 0 0.2 0.1 0.3 0 0.1 0.1 0.3 0 0.1 0.1 0.3 0 0.1 0 0.3 0.1 0.1 0.1 0.3 0 0.1 0 0.2 0 0.2 0 0.3 0 0.2 0 0.3 0 0.2 0 0.5 0 0.2 0 0.4 0 0.2-0.1 0.4 0 0.2-0.1 0.4 0 0.2-0.1 0.4-0.1 0.2-0.1 0.4-0.1 0.1-0.2 0.3-0.1 0.2-0.2 0.3-0.1 0.2-0.3 0.3-0.1 0.1-0.2 0.2-0.1 0.2-0.3 0.3-0.1 0.1-0.2 0.2-0.2 0.1-0.4 0.2-0.1 0.1-0.3 0.2-0.2 0.1-0.3 0.2-0.2 0.1-0.4 0.2-0.2 0-0.4 0.1-0.3 0.1-0.5 0.1-0.2 0.1-0.4 0.1-0.3 0.1-0.5 0.1-0.3 0.1-0.5 0.1-0.3 0-0.6 0-0.2 0.1-0.5 0.1-0.3 0-0.5 0-0.9 0-1.6 0c-0.5 0-0.9-0.1-1.2-0.1zm2-1.1h1.3q0.3 0 0.6 0 0.3 0 0.6-0.1 0.3-0.1 0.6-0.1 0.3-0.1 0.6-0.3 0.3-0.1 0.5-0.2 0.3-0.1 0.5-0.3 0.2-0.2 0.3-0.4 0.2-0.2 0.3-0.4 0.2-0.3 0.3-0.6 0.1-0.3 0.2-0.6 0.1-0.3 0.1-0.6 0-0.3 0-0.6 0-0.3 0-0.5 0-0.3-0.1-0.6-0.1-0.3-0.2-0.5-0.1-0.3-0.2-0.5-0.2-0.2-0.3-0.4-0.2-0.2-0.4-0.4-0.2-0.1-0.4-0.2-0.2-0.2-0.4-0.3-0.3-0.1-0.6-0.2-0.3-0.1-0.6-0.1-0.3-0.1-0.6-0.1-0.3 0-0.6 0c-0.3 0-0.6 0-0.9 0-0.2 0-0.5 0.1-0.6 0.1zm14.8-9.3q0.2 0 0.4 0 0.3 0 0.5 0.1 0.2 0 0.5 0.1 0.2 0.1 0.4 0.1 0.2 0.1 0.3 0.2 0.2 0.1 0.4 0.2 0.2 0.1 0.4 0.2 0.1 0.1 0.3 0.3 0.1 0.1 0.3 0.2 0.1 0.2 0.2 0.3 0.1 0.2 0.3 0.3 0.1 0.2 0.2 0.4 0.1 0.2 0.2 0.3 0 0.2 0.1 0.4 0.1 0.2 0.1 0.4 0.1 0.2 0.1 0.4 0.1 0.2 0.1 0.4 0 0.2 0.1 0.4 0 0.3 0 0.5 0 0.3 0 0.6-0.1 0.3-0.1 0.6-0.1 0.3-0.2 0.6 0 0.2-0.1 0.5-0.1 0.3-0.3 0.5-0.1 0.2-0.2 0.4-0.2 0.2-0.4 0.4-0.1 0.2-0.3 0.4-0.2 0.2-0.4 0.3-0.2 0.2-0.5 0.3-0.2 0.1-0.4 0.2-0.3 0.1-0.5 0.2-0.3 0.1-0.5 0.2-0.3 0-0.6 0.1-0.3 0-0.5 0-0.3 0.1-0.6 0.1-0.3 0-0.6-0.1-0.2 0-0.5 0-0.3-0.1-0.6-0.2-0.3 0-0.5-0.1-0.3-0.1-0.5-0.2-0.2-0.1-0.4-0.3-0.2-0.1-0.4-0.3-0.2-0.1-0.4-0.3-0.2-0.2-0.4-0.4-0.1-0.2-0.3-0.4-0.1-0.2-0.2-0.4-0.1-0.2-0.2-0.4-0.1-0.3-0.2-0.6-0.1-0.2-0.1-0.5-0.1-0.3-0.1-0.5 0-0.3 0-0.6 0-0.3 0-0.5 0-0.3 0.1-0.6 0-0.3 0.1-0.6 0.1-0.2 0.2-0.5 0.1-0.2 0.2-0.5 0.1-0.2 0.3-0.4 0.1-0.2 0.3-0.4 0.2-0.2 0.4-0.4 0.1-0.2 0.3-0.3 0.3-0.2 0.5-0.3 0.2-0.2 0.4-0.3 0.3-0.1 0.5-0.2 0.3-0.1 0.6-0.1 0.2-0.1 0.5-0.2 0.3 0 0.6 0 0.3-0.1 0.6-0.1 0.2 0.1 0.5 0.1zm-0.9 1.2q-0.2 0-0.3 0.1-0.2 0-0.3 0-0.2 0.1-0.4 0.2-0.1 0-0.2 0.1-0.2 0-0.3 0.1-0.1 0.1-0.2 0.2-0.2 0.1-0.3 0.2-0.1 0.1-0.2 0.2-0.1 0.1-0.1 0.2-0.1 0.1-0.2 0.2-0.1 0.1-0.1 0.3-0.1 0.1-0.2 0.2 0 0.2-0.1 0.3 0 0.1-0.1 0.3 0 0.1 0 0.3-0.1 0.1-0.1 0.3 0 0.1 0 0.3-0.1 0.1-0.1 0.3 0 0.1 0 0.3 0 0.1 0 0.3 0 0.1 0.1 0.3 0 0.1 0 0.3 0 0.1 0.1 0.3 0 0.1 0 0.3 0.1 0.1 0.1 0.3 0.1 0.1 0.2 0.2 0 0.2 0.1 0.3 0.1 0.1 0.1 0.2 0.1 0.1 0.2 0.3 0.1 0.1 0.2 0.2 0.1 0.1 0.2 0.2 0.1 0.1 0.2 0.2 0.1 0 0.3 0.1 0.1 0.1 0.2 0.2 0.1 0 0.3 0.1 0.1 0 0.3 0.1 0.1 0 0.3 0 0.1 0.1 0.3 0.1 0.1 0 0.3 0 0.1 0 0.3 0 0.2 0 0.3-0.1 0.2 0 0.3 0 0.2-0.1 0.3-0.1 0.1-0.1 0.3-0.1 0.1-0.1 0.2-0.2 0.2-0.1 0.3-0.1 0.1-0.1 0.2-0.2 0.1-0.1 0.2-0.2 0.1-0.1 0.2-0.2 0.1-0.1 0.1-0.3 0.1-0.1 0.2-0.2 0.1-0.1 0.1-0.3 0.1-0.1 0.1-0.2 0.1-0.2 0.1-0.3 0.1-0.2 0.1-0.3 0-0.2 0.1-0.3 0-0.2 0-0.4 0-0.1 0-0.3 0.1-0.1 0.1-0.3 0-0.1-0.1-0.3 0-0.1 0-0.3 0-0.1 0-0.3 0-0.1-0.1-0.3 0-0.1-0.1-0.2 0-0.2 0-0.3-0.1-0.2-0.2-0.3 0-0.1-0.1-0.2 0-0.2-0.1-0.3-0.1-0.1-0.2-0.2-0.1-0.1-0.2-0.2 0-0.2-0.1-0.2-0.2-0.1-0.3-0.2-0.1-0.1-0.2-0.2-0.1-0.1-0.3-0.1-0.1-0.1-0.2-0.2-0.2 0-0.3-0.1-0.2 0-0.4 0-0.1-0.1-0.3-0.1-0.1 0-0.3 0-0.1 0-0.3 0zm17.1-1.1v10.3h-2l-3.4-4.8q-0.6-0.9-1.2-1.7-0.5-0.9-1-1.8c0 0.4 0 0.9 0 1.3q0 0.7 0 1.5c0 0.5 0 4.9 0 5.5h-1.8v-10.3h2.2l3.4 4.8c0.4 0.5 0.7 1.1 1.1 1.7 0.4 0.6 0.7 1.1 1 1.7h0.1c-0.1-0.5-0.1-1-0.2-1.4 0-0.4 0-1 0-1.4 0-0.5 0-4.9 0-5.4h1.8zm9.7 9v1.3h-7v-10.3h6.7v1.3h-4.8v3h4.5v1.3h-4.5v3.4zm8.6-8.7l-0.5 1.3q0 0-0.1 0-0.1-0.1-0.2-0.1 0 0-0.1 0-0.1-0.1-0.1-0.1-0.3-0.1-0.5-0.1-0.2-0.1-0.4-0.1-0.2 0-0.4 0-0.3 0-0.5 0-0.1 0-0.2 0-0.2 0-0.3 0-0.1 0-0.2 0-0.2 0-0.3 0.1-0.1 0-0.2 0-0.1 0.1-0.1 0.1-0.1 0-0.2 0.1-0.1 0-0.2 0.1 0 0-0.1 0.1 0 0-0.1 0.1 0 0.1-0.1 0.1 0 0.1 0 0.1-0.1 0.1-0.1 0.2 0 0 0 0.1-0.1 0-0.1 0.1 0 0.1 0 0.1 0 0.1 0 0.2 0.1 0.1 0.1 0.2 0 0.1 0.1 0.2 0 0.1 0.1 0.2 0.1 0.1 0.1 0.2 0.1 0 0.2 0.1 0.1 0.1 0.2 0.1 0.1 0.1 0.3 0.2 0.1 0 0.3 0.1 0.1 0.1 0.3 0.2 0.2 0 0.3 0.1 0.2 0 0.4 0.1 0.2 0.1 0.4 0.2 0.3 0.1 0.5 0.2 0.2 0.1 0.4 0.2 0.2 0.1 0.4 0.2 0.2 0.1 0.3 0.2 0.1 0.1 0.3 0.2 0.1 0.2 0.2 0.3 0.1 0.1 0.2 0.3 0.1 0.1 0.2 0.3 0 0.1 0.1 0.3 0 0.2 0 0.3 0 0.2 0 0.4 0 0.1 0 0.3 0 0.1 0 0.3-0.1 0.1-0.1 0.3-0.1 0.1-0.1 0.3-0.1 0.1-0.2 0.2-0.1 0.2-0.2 0.3-0.1 0.1-0.3 0.2-0.1 0.2-0.2 0.3-0.2 0.1-0.4 0.2-0.1 0-0.3 0.1-0.2 0.1-0.4 0.2-0.1 0-0.3 0.1-0.3 0-0.5 0.1-0.2 0-0.5 0.1-0.2 0-0.5 0-0.2 0-0.5 0-0.3 0-0.6 0-0.2 0-0.5-0.1-0.3 0-0.6-0.1-0.3 0-0.6-0.1-0.1 0-0.2-0.1-0.1 0-0.2 0-0.1-0.1-0.2-0.1-0.1-0.1-0.2-0.1l0.4-1.3q0.1 0 0.2 0.1 0.1 0 0.2 0.1 0.1 0 0.2 0 0.1 0.1 0.3 0.1 0.1 0 0.2 0.1 0.1 0 0.2 0 0.2 0 0.3 0.1 0.1 0 0.3 0 0.1 0 0.2 0 0.1 0.1 0.2 0.1 0.2 0 0.3 0 0.1 0 0.3 0 0.1 0 0.3 0 0.1 0 0.3-0.1 0.2 0 0.3 0 0.2-0.1 0.4-0.1 0.1 0 0.2-0.1 0.1-0.1 0.2-0.1 0.1-0.1 0.2-0.2 0.1-0.1 0.2-0.2 0 0 0.1-0.1 0-0.1 0.1-0.2 0-0.1 0-0.3 0.1-0.1 0.1-0.2 0-0.1-0.1-0.2 0-0.1 0-0.2 0-0.1-0.1-0.2 0-0.1-0.1-0.1 0-0.1-0.1-0.2-0.1-0.1-0.2-0.2-0.1-0.1-0.2-0.1-0.1-0.1-0.2-0.2-0.1-0.1-0.3-0.1-0.1-0.1-0.3-0.2-0.2 0-0.3-0.1-0.2-0.1-0.3-0.1-0.3-0.1-0.5-0.1-0.2-0.1-0.4-0.2-0.2-0.1-0.4-0.2-0.2-0.1-0.4-0.2-0.2-0.1-0.4-0.2-0.1-0.1-0.3-0.3-0.1-0.1-0.2-0.2-0.2-0.2-0.3-0.3-0.1-0.2-0.1-0.3-0.1-0.2-0.2-0.3 0-0.2-0.1-0.3 0-0.2 0-0.4 0-0.1 0-0.3 0.1-0.1 0.1-0.3 0-0.1 0.1-0.3 0-0.1 0.1-0.2 0.1-0.2 0.2-0.3 0.1-0.1 0.2-0.2 0.1-0.1 0.2-0.2 0.1-0.1 0.3-0.2 0.1-0.1 0.3-0.2 0.1-0.1 0.3-0.2 0.2-0.1 0.3-0.1 0.2-0.1 0.4-0.1 0.2-0.1 0.4-0.1 0.2-0.1 0.5-0.1 0.2 0 0.4 0 0.2 0 0.4 0 0.2 0 0.3 0 0.2 0 0.3 0 0.1 0 0.3 0 0.1 0 0.3 0 0.1 0 0.2 0.1 0.1 0 0.2 0 0.1 0 0.2 0 0.2 0.1 0.3 0.1 0.1 0 0.1 0 0.1 0.1 0.2 0.1 0.1 0 0.2 0.1 0.1 0 0.2 0zm3.1-0.3h2v10.3h-2c0 0 0-10.3 0-10.3zm10.1 0l4 10.3h-2.1l-1.1-3h-4l-1.1 3h-2l3.9-10.3h2.4zm0.3 6.1l-1-2.7q-0.2-0.5-0.4-1l-0.3-1q-0.1 0.3-0.2 0.6-0.1 0.4-0.2 0.7-0.1 0.4-0.2 0.7l-1 2.7z"/>
</svg>