<?xml version="1.0" encoding="utf-8"?>
<!-- Generator: Adobe Illustrator 27.5.0, SVG Export Plug-In . SVG Version: 6.00 Build 0)  -->
<svg version="1.1" id="Capa_1" xmlns="http://www.w3.org/2000/svg" xmlns:xlink="http://www.w3.org/1999/xlink" x="0px" y="0px"
	 viewBox="0 0 2122 2122" style="enable-background:new 0 0 2122 2122;" xml:space="preserve">
<g>
	<g>
		<path style="fill:#5288C1;" d="M1344.402,459.92c-23.308-60.882-63.932-120.531-127.839-187.717
			c-31.927-33.632-73.155-63.707-113.023-92.799c-17.023-12.424-34.631-25.266-51.335-38.255c-0.119-0.093-0.285-0.151-0.414-0.132
			c-88.599,4.648-174.626,29.403-248.784,71.586c-125.216,71.274-216.945,172.965-265.269,294.08
			c-46.987,117.837-53.559,254.567-17.581,365.749c20.738,64.044,68.414,133.958,114.519,201.564
			c41.829,61.345,85.086,124.774,106.736,182.216c17.113,45.364,21.245,91.201,24.889,131.639c0.029,0.322,0.3,0.57,0.622,0.57
			h126.55c0.183,0,0.358-0.083,0.477-0.219c0.117-0.142,0.168-0.327,0.136-0.507c-19.53-115.727-35.683-223.664-49.383-329.968
			c-1.832-14.222-3.888-28.945-5.876-43.182C823.966,908.09,808.6,798.01,851.603,699.701
			c31.695-72.453,104.071-134.046,188.092-98.022c12.726,5.452,24.77,12.779,35.8,21.773c0.259,0.215,0.629,0.185,0.853-0.058
			c5.443-5.881,10.173-10.533,14.899-14.631c56.151-48.706,135.751-50.962,198.07-5.627c33.968,24.706,58.67,59.537,73.408,103.512
			c0.083,0.253,0.322,0.424,0.59,0.424h0.053c0.283-0.024,0.516-0.244,0.56-0.526C1378.443,614.561,1371.87,531.589,1344.402,459.92
			z M1014.57,373.221c-25.988,42.124-66.784,72.574-106.238,102.022c-14.994,11.191-30.497,22.758-44.979,34.816
			c-51.8,43.118-95.92,97.944-127.593,158.543c-6.288,12.029-11.484,26.207-16.987,41.223
			c-16.256,44.355-34.68,94.626-88.008,95.288c-0.233,0.005-0.465,0.005-0.699,0.005c-32.236-0.005-58.18-27.898-67.216-55.669
			c-10.026-30.821-5.247-64.507,0.753-93.388c1.837-8.848,4.051-18.241,6.967-29.564c0.046-0.185,0.008-0.38-0.105-0.531
			c-1.272-1.69-2.314-3.245-3.187-4.755c-18.859-32.584-3.442-70.733,12.492-103.931c38.699-80.629,89.615-169.379,173.827-216.263
			c8.692-4.838,17.199-8.385,25.286-10.533c0.078-0.024,0.151-0.058,0.217-0.107c34.723-26.305,69.564-44.253,103.554-53.335
			c13.739-3.674,30.02-6.076,46.857-6.076c28.641,0,58.88,6.948,80.853,26.392C1042.168,285.484,1036.268,338.05,1014.57,373.221z"
			/>
		<path style="fill:#5288C1;" d="M1079.627,870.95c0.112,0,0.224,0,0.331-0.005c8.209-0.214,16.385-8.648,21.34-22.002
			c16.643-44.848,1.442-100.526-5.861-122.377c-4.024-12.034-9.705-23.776-16.882-34.909l-2.431-3.776l-1.919,4.058
			c-15.384,32.512-23.145,70.821-21.852,107.863c0.828,23.805,4.051,41.461,10.144,55.571
			C1068.027,868.178,1074.804,870.95,1079.627,870.95z"/>
		<path style="fill:#5288C1;" d="M1292.597,652.607c-37.418-39.796-103.932-65.632-161.603-28.336
			c-10.573,6.841-20.482,15.464-29.457,25.632l-1.359,1.54l1.252,1.627c35.956,46.923,52.926,118.027,43.235,181.145
			c-4.511,29.408-24.136,78.314-69.374,75.674c-38.541-2.368-52.365-47.79-57.174-85.476
			c-7.118-55.766,4.645-115.021,32.273-162.577l1.055-1.813l-1.605-1.349c-40.936-34.456-86.146-32.316-120.933,5.701
			c-54.017,59.04-56.502,144.964-51.81,221.223c4.37,71.015,14.438,142.962,24.177,212.536c2.66,19.011,5.318,37.997,7.864,56.959
			c10.02,74.655,20.76,154.144,32.224,233.067l0.309,2.134h187.456l0.361-2.061c9.169-52.209,22.299-103.849,39.035-153.481
			c22.865-67.936,53.101-134.373,82.339-198.621c26.105-57.374,53.101-116.696,74.826-176.998v-0.005
			c6.582-18.3,12.624-36.809,17.954-55.011l0.107-0.36l-0.005-0.375C1342.896,738.531,1325.688,687.803,1292.597,652.607z"/>
	</g>
	<g>
		<path style="fill:#4664AC;" d="M1587.651,432.125c-48.37-95.337-126.26-173.291-225.252-225.427
			c-94.733-49.89-202.139-73.276-310.708-67.546l-6.685,0.351l5.284,4.107c16.743,13.018,34.37,25.876,51.413,38.314
			c39.756,29.009,80.867,59.001,112.599,92.429c63.615,66.879,104.029,126.202,127.186,186.684
			c27.274,71.153,33.788,153.588,19.361,245.023l-0.092,0.604l0.195,0.58c12.302,36.721,17.398,78.802,15.148,125.062
			c-5.452,111.83-40.819,221.452-71.021,304.458c-34.821,95.698-70.655,177.427-109.559,249.856l-1.973,3.673h130.45l0.302-2.149
			c3.449-24.697,10.87-58.373,37.876-99.971c22.192-34.148,65.261-84.365,106.908-132.925
			c43.766-51.03,85.106-99.225,105.037-131.191C1679.183,855.549,1684.488,623.204,1587.651,432.125z"/>
		<path style="fill:#4664AC;" d="M1264.25,1153.834c39.357-104.507,62.953-191.6,74.256-274.07
			c3.834-27.951,5.544-52.935,5.237-76.385l-0.219-16.604l-4.668,15.937c-5.305,18.11-11.318,36.521-17.866,54.723
			c-21.652,60.117-48.604,119.347-74.67,176.629c-29.291,64.36-59.576,130.913-82.523,199.093
			c-16.814,49.871-30.013,101.754-39.221,154.207l-0.516,2.928h42.358l0.619-1.593c14.436-37.33,30.548-74.758,46.129-110.953
			C1230.535,1237.395,1248.499,1195.676,1264.25,1153.834z"/>
	</g>
	<path style="fill:#21417A;" d="M1363.904,706.249c-14.821-44.224-39.668-79.259-73.856-104.127
		c-29.339-21.34-63.069-32.56-97.754-32.56c-1.106,0-2.222,0.01-3.333,0.034c-36.497,0.755-70.572,13.973-98.533,38.221
		c-4.643,4.034-9.291,8.585-14.597,14.3c-10.999-8.901-22.986-16.16-35.644-21.588c-38.497-16.497-77.942-13.681-114.075,8.132
		c-31.589,19.074-58.456,51.23-75.654,90.543c-43.143,98.626-27.751,208.887-12.867,315.512c1.988,14.236,4.042,28.955,5.873,43.167
		c13.703,106.324,29.859,214.275,49.393,330.016c0.049,0.302,0.309,0.521,0.614,0.521h50.358c0.181,0,0.353-0.078,0.473-0.214
		c0.117-0.136,0.17-0.321,0.144-0.497c-11.462-78.909-22.2-158.387-32.217-233.033c-2.545-18.967-5.252-38.294-7.866-56.979
		c-9.732-69.515-19.793-141.398-24.153-212.292c-4.653-75.61-2.232-160.745,50.996-218.928
		c33.413-36.506,76.823-38.65,116.226-5.754c-27.778,48.054-39.59,107.829-32.409,164.083c7.111,55.717,27.886,86.216,60.078,88.195
		c1.257,0.078,2.5,0.112,3.727,0.112c39.255,0,62.845-38.85,68.921-78.426c9.783-63.732-7.303-135.537-43.532-183.103
		c8.696-9.788,18.27-18.095,28.472-24.697c56.156-36.331,121.081-11.03,157.637,27.859c32.541,34.611,49.462,84.633,50.299,148.677
		c0.307,23.288-1.398,48.122-5.208,75.917c-11.274,82.236-34.816,169.11-74.085,273.398c-15.727,41.768-33.676,83.459-51.03,123.775
		c-15.591,36.224-31.718,73.676-46.173,111.06c-0.078,0.19-0.049,0.409,0.063,0.575c0.117,0.171,0.312,0.273,0.516,0.273h33.008
		c0.229,0,0.439-0.127,0.55-0.326c38.972-72.565,74.87-154.426,109.739-250.265c30.28-83.216,65.734-193.125,71.206-305.374
		C1381.483,785.805,1376.333,743.345,1363.904,706.249z M1098.375,847.856c-4.502,12.141-11.591,19.79-18.495,19.971
		c-0.087,0.005-0.17,0.005-0.253,0.005c-5.466,0-10.397-4.731-14.268-13.695c-5.934-13.739-9.077-31.035-9.89-54.441
		c-1.262-36.17,6.219-73.549,21.074-105.403c6.748,10.636,12.107,21.818,15.937,33.262
		C1099.681,749.094,1114.672,803.939,1098.375,847.856z"/>
	<g>
		<path style="fill:#EE7344;" d="M1304.747,1843.767c-4.136,0.745-7.98,1.111-11.752,1.111H777.513
			c-3.461,0-7.077-0.326-11.05-1.004c-0.224-0.029-0.446,0.044-0.587,0.219c-0.144,0.175-0.18,0.409-0.1,0.619
			c45.846,118.236,151.753,194.635,269.812,194.635c118.109,0,224.034-76.438,269.851-194.743c0.083-0.21,0.044-0.448-0.097-0.619
			C1305.196,1843.811,1304.971,1843.743,1304.747,1843.767z M1219.773,1921.093c-45.135,62.455-114.182,93.9-180.202,82.036
			l-1.574-0.282c-10.285-1.823-29.43-5.218-34.794-14.441c-1.7-2.923-1.89-6.29-0.57-10.007
			c4.477-12.599,36.687-22.105,65.106-30.494c16.984-5.013,31.659-9.345,38.616-13.754c12.146-7.703,22.991-17.534,33.476-27.04
			c10.285-9.325,20.916-18.962,32.74-26.548c11.264-7.23,21.286-10.748,30.611-10.748c0.209,0,0.414,0,0.624,0.005
			c12.058,0.205,22.777,7.152,26.056,16.906C1233.054,1896.23,1229.849,1907.148,1219.773,1921.093z"/>
		<path style="fill:#EE7344;" d="M1360.47,1692.757l-650.085,0.014c-25.727,0.18-46.657,21.252-46.657,46.967v5.32
			c0,25.905,21.074,46.982,46.979,46.982h649.763c25.904,0,46.982-21.077,46.982-46.982v-5.32
			C1407.452,1713.833,1386.374,1692.757,1360.47,1692.757z"/>
		<path style="fill:#EE7344;" d="M1360.47,1547.607l-650.085,0.015c-25.727,0.18-46.657,21.247-46.657,46.962v5.325
			c0,25.72,20.931,46.787,46.979,46.977h649.763c25.904,0,46.982-21.072,46.982-46.977v-5.325
			C1407.452,1568.679,1386.374,1547.607,1360.47,1547.607z"/>
		<path style="fill:#EE7344;" d="M1360.47,1385.303H710.707c-25.905,0-46.979,21.072-46.979,46.977v5.325
			c0,25.715,20.931,46.782,46.979,46.977h649.763c25.904,0,46.982-21.072,46.982-46.977v-5.325
			C1407.452,1406.374,1386.374,1385.303,1360.47,1385.303z"/>
	</g>
	<path style="fill:#8AB8E3;" d="M1012.433,255.024c-35.817-31.688-92.728-31.114-130.582-20.999
		c-34.382,9.189-69.586,27.313-104.633,53.866l-10.122,7.664l12.271-3.264c15.369-4.107,28.083-2.709,37.783,4.126
		c16.095,11.333,18.434,34.163,15.253,51.747c-7.265,40.18-36.794,71.479-65.355,101.749c-8.287,8.785-16.857,17.866-24.731,27.011
		c-22.909,26.612-42.351,58.334-61.186,99.844c-1.662,3.659-3.318,7.576-5.03,11.625c-8.531,20.175-18.202,43.04-36.239,53.145
		c-21.118,11.82-52.202,4.175-67.903-16.697l-3.116-4.141l-1.294,5.018c-2.928,11.376-5.152,20.814-7.001,29.71
		c-6.08,29.286-10.916,63.469-0.662,94.987c9.386,28.843,36.455,57.822,70.183,57.822c0.243,0,0.489,0,0.736-0.005
		c55.476-0.692,74.292-52.034,90.896-97.335c5.466-14.914,10.629-29.004,16.823-40.853
		c31.481-60.239,75.337-114.733,126.823-157.588c14.419-12.005,29.888-23.552,44.85-34.714
		c39.688-29.622,80.726-60.254,107.028-102.884C1039.591,338.6,1045.513,284.281,1012.433,255.024z"/>
	<g>
		<path style="fill:#FFFFFF;" d="M1232.815,1885.731c-3.693-10.982-15.6-18.807-28.955-19.031c-0.229-0.005-0.453-0.005-0.677-0.005
			c-9.944,0-20.516,3.683-32.292,11.24c-12.043,7.727-22.777,17.457-33.155,26.865c-10.387,9.418-21.13,19.157-33.052,26.719
			c-6.587,4.175-21.764,8.653-37.832,13.398c-30.553,9.019-62.146,18.344-67.157,32.434c-1.642,4.624-1.369,8.867,0.814,12.619
			c6.09,10.475,25.403,13.9,36.943,15.951l1.568,0.277c9.408,1.691,18.867,2.515,28.319,2.515
			c58.061,0,115.532-31.24,154.962-85.793C1229.045,1913.589,1237.473,1899.582,1232.815,1885.731z"/>
		<path style="fill:#FFFFFF;" d="M820.024,292.335c-10.962-7.717-25.069-9.359-41.941-4.867
			c-8.336,2.217-17.084,5.861-26.003,10.826c-84.972,47.308-136.209,136.565-175.12,217.637c-16.278,33.919-32,72.94-12.38,106.84
			c0.938,1.622,2.047,3.279,3.393,5.072c11.608,15.435,30.996,24.205,49.498,24.205c8.784,0,17.369-1.978,24.826-6.154
			c19.53-10.943,29.554-34.646,38.397-55.557c1.695-4.005,3.335-7.883,4.977-11.503c18.636-41.067,37.837-72.414,60.426-98.656
			c7.798-9.057,16.329-18.1,24.58-26.845c29.06-30.797,59.108-62.646,66.635-104.283
			C840.765,329.952,838.037,305.021,820.024,292.335z"/>
	</g>
	<g>
		<polygon style="fill:#F3B24C;" points="707.907,1695.266 708.212,1697.746 1362.599,1697.746 1362.599,1641.896 707.907,1641.882 
					"/>
		<path style="fill:#F3B24C;" d="M708.953,1789.965c4.943,29.144,27.844,52.044,56.987,56.984c4.148,0.706,7.934,1.048,11.574,1.048
			h515.483c3.956,0,7.981-0.38,12.307-1.159c28.755-5.189,51.362-28.049,56.249-56.872l0.492-2.914H708.461L708.953,1789.965z"/>
		<polygon style="fill:#F3B24C;" points="707.907,1550.116 708.212,1552.596 1362.599,1552.596 1362.599,1479.592 707.907,1479.578 
					"/>
		<path style="fill:#F3B24C;" d="M1765.531,1276.957l-92.965-81.188c-5.978-5.218-12.185-11.172-18.762-17.481
			c-22.344-21.428-47.669-45.711-75.499-51.883c-9.262-2.041-19.805,1.516-26.251,8.868c-5.51,6.28-7.059,14.314-4.253,22.036
			c10.222,28.122,36.989,50.002,60.609,69.311c6.509,5.32,12.658,10.343,18.368,15.391l92.472,81.686
			c6.456,5.7,13.92,8.624,21.71,8.624c3.532,0,7.128-0.604,10.723-1.818c12.063-4.073,21.72-14.626,24.034-26.26
			C1777.726,1294.136,1774.106,1284.45,1765.531,1276.957z"/>
		<path style="fill:#F3B24C;" d="M1813.594,884.3c-5.038-0.965-9.969-1.915-14.714-2.899c-3.508-0.73-7.079-1.5-10.709-2.275
			c-31.552-6.782-67.323-14.446-98.558-6.154c-7.342,1.949-12.848,8.775-13.705,16.989c-0.799,7.732,2.753,14.572,9.277,17.851
			c21.077,10.611,45.495,14.587,69.111,18.427c10.309,1.681,20.97,3.415,30.952,5.666c9.983,2.256,20.244,5.549,31.114,9.033
			c20.336,6.524,41.267,13.242,61.427,13.242c3.23,0,6.441-0.175,9.622-0.545c8.857-1.038,16.657-7.235,19.42-15.425
			c2.377-7.065,0.487-14.256-5.189-19.723C1879.236,896.904,1844.362,890.21,1813.594,884.3z"/>
		<path style="fill:#F3B24C;" d="M1922.101,394.279c-2.597-5.218-6.826-8.804-12.57-10.651
			c-23.552-7.581-68.638,16.351-92.862,29.198c-5.126,2.719-9.169,4.867-11.951,6.164h-0.005
			c-5.827,2.719-11.825,5.466-17.929,8.258c-41.818,19.137-89.218,40.833-121.174,72.526c-5.574,5.525-6.665,13.559-2.782,20.467
			c2.791,4.969,8.395,9.277,15.386,9.277c1.389,0,2.826-0.171,4.312-0.536c19.118-4.726,37.018-13.788,54.329-22.548
			c4.512-2.285,9.014-4.565,13.52-6.762c22.188-10.811,45.013-21.238,67.089-31.323l8.083-3.693
			c9.876-4.517,20.136-8.779,30.056-12.901c13.837-5.744,28.136-11.683,41.744-18.451
			C1919.84,422.127,1928.864,407.901,1922.101,394.279z"/>
		<path style="fill:#F3B24C;" d="M1574.706,282.897c2.465,1.345,5.111,2.007,7.776,2.007c4.195,0,8.424-1.637,12.01-4.818
			c14.027-12.443,25.247-28.439,36.093-43.908c6.621-9.442,13.461-19.201,20.779-27.873c3.532-4.185,7.747-8.375,12.21-12.809
			c14.455-14.368,30.835-30.65,27.235-51.839c-0.984-5.749-6.456-10.085-11.109-11.255c-26.333-6.582-47.425,20.907-62.826,41.004
			c-1.905,2.49-3.717,4.852-5.428,6.996c-17.257,21.686-40.901,51.386-45.832,83.021
			C1564.348,271.546,1567.914,279.19,1574.706,282.897z"/>
		<path style="fill:#F3B24C;" d="M595.236,1150.234l-0.003,0.005c-32.102,15.605-62.19,38.767-91.286,61.164
			c-10.09,7.771-20.526,15.805-30.668,23.206c-17.661,12.897-35.274,25.861-52.887,38.831l-2.879,2.119
			c-2.017,1.481-4.017,2.904-5.978,4.292c-13.427,9.535-26.11,18.538-27.871,37.871c-0.514,5.661,4.237,11.946,9.969,13.184
			c2.933,0.638,5.739,0.93,8.436,0.93c15.177,0,26.884-9.223,38.263-18.182c2.587-2.042,5.204-4.102,7.893-6.086l18.633-13.739
			c12.363-9.106,24.726-18.212,37.023-27.4c9.864-7.372,20.383-14.811,30.555-22.008c28.76-20.336,58.499-41.369,82.034-66.48
			c6.127-6.538,6.77-15.26,1.642-22.222C613.774,1149.834,604.76,1145.615,595.236,1150.234z"/>
		<path style="fill:#F3B24C;" d="M411.93,1054.18c5.919-1.511,11.871-2.967,17.832-4.434c24.811-6.08,50.467-12.375,74.29-22.631
			c8.421-3.625,10.402-12.497,8.629-19.679c-1.842-7.479-8.207-15.172-17.757-14.441c-25.447,1.973-50.77,8.341-75.259,14.5
			c-6.404,1.607-12.792,3.216-19.16,4.741c-5.593,1.34-11.354,2.533-17.179,3.742c-23.927,4.96-48.668,10.09-67.34,25.968
			c-3.99,3.391-5.549,8.755-4.17,14.344c1.415,5.734,5.686,10.188,10.882,11.357c5.808,1.301,11.661,1.861,17.539,1.861
			c18.139,0,36.514-5.325,54.424-10.514C400.52,1057.293,406.291,1055.622,411.93,1054.18z"/>
		<path style="fill:#F3B24C;" d="M439.976,672.753c6.997,0,12.261-4.989,14.492-10.466c2.668-6.548,1.647-15.143-6.643-19.581
			c-33.369-17.871-68.256-34.148-101.99-49.89c-19.074-8.901-38.797-18.1-58.003-27.479c-22.433-10.957-48.937-24.005-75.442-37.749
			c-2.665-1.379-5.421-2.899-8.244-4.453c-17.849-9.832-38.092-20.964-57.51-11.294c-2.824,1.403-5.532,5.359-5.069,9.009
			c2.862,22.47,23.788,32.916,42.251,42.129c2.151,1.077,4.268,2.134,6.322,3.192c31.072,16.024,56.48,28.599,79.963,39.581
			c54.689,25.559,108.492,49.866,165.401,66.343C437.06,672.544,438.554,672.753,439.976,672.753z"/>
		<path style="fill:#F3B24C;" d="M419.842,391.136l4.568,2.465c21.566,11.679,47.481,24.712,76.168,32.867
			c1.554,0.444,3.084,0.658,4.561,0.658c5.454,0,10.168-2.933,12.653-8.147c2.95-6.197,2.095-15.167-5.247-20.316
			c-18.11-12.697-37.484-23.523-56.219-33.993c-5.138-2.87-10.282-5.744-15.423-8.667c-2.502-1.423-4.955-2.84-7.376-4.244
			c-18.336-10.602-35.657-20.619-58.434-22.606c-3.907-0.312-7.549,1.574-9.762,5.111c-2.407,3.858-2.565,8.672-0.404,12.268
			C378.3,368.778,398.478,379.638,419.842,391.136z"/>
	</g>
</g>
</svg>
